<?xml version="1.0" encoding="UTF-8" standalone="no"?>
<svg
   xmlns:dc="http://purl.org/dc/elements/1.1/"
   xmlns:cc="http://creativecommons.org/ns#"
   xmlns:rdf="http://www.w3.org/1999/02/22-rdf-syntax-ns#"
   xmlns:svg="http://www.w3.org/2000/svg"
   xmlns="http://www.w3.org/2000/svg"
   viewBox="0 0 2730.6667 2730.6667"
   height="2730.6667"
   width="2730.6667"
   xml:space="preserve"
   id="svg3718"
   version="1.1"><metadata
     id="metadata3724"><rdf:RDF><cc:Work
         rdf:about=""><dc:format>image/svg+xml</dc:format><dc:type
           rdf:resource="http://purl.org/dc/dcmitype/StillImage" /><dc:title></dc:title></cc:Work></rdf:RDF></metadata><defs
     id="defs3722"><clipPath
       id="clipPath3734"
       clipPathUnits="userSpaceOnUse"><path
         id="path3732"
         d="M 0,2048 H 2048 V 0 H 0 Z" /></clipPath></defs><g
     transform="matrix(1.3333333,0,0,-1.3333333,0,2730.6667)"
     id="g3726"><g
       id="g3728"><g
         clip-path="url(#clipPath3734)"
         id="g3730"><g
           transform="translate(188.5205,885.5176)"
           id="g3736"><path
             id="path3738"
             style="fill:#ffffff;fill-opacity:1;fill-rule:evenodd;stroke:none"
             d="M 0,0 0.195,-0.516 C 5.246,-0.202 10.296,0.111 15.348,0.424 15.279,1.082 15.211,1.74 15.143,2.397 10.095,1.599 5.047,0.799 0,0 m 1510.411,474.469 c 3.634,-0.438 5.622,-0.254 5.037,3.964 -0.671,4.834 -2.711,6.345 -7.63,4.664 0.868,-2.884 1.703,-5.669 2.593,-8.628 M 17.345,3.612 c 2.115,-0.868 4.13,-1.847 4.213,-1.706 1.704,2.935 4.376,5.992 4.385,9.033 0.01,3.124 0.956,8.035 -4.329,9.512 C 18.741,15.299 25.673,8.513 17.345,3.612 m 1201.174,248.375 c 0.036,0.699 0.072,1.398 0.109,2.098 h -52.246 c 17.366,-0.699 34.751,-1.398 52.137,-2.098 m 258.738,334.216 c 1.039,11.718 -7.052,15.318 -12.666,20.43 -0.722,0.658 -3.547,-0.993 -5.397,-1.575 0.512,-1.445 0.681,-3.177 1.604,-4.274 2.022,-2.404 4.333,-4.594 6.7,-6.672 2.806,-2.462 5.795,-4.716 9.759,-7.909 m -39.18,14.051 c -1.433,-0.982 -3.665,-1.911 -3.589,-2.576 0.189,-1.639 1.129,-3.456 2.313,-4.67 4.483,-4.602 9.428,-8.769 13.743,-13.514 6.285,-6.91 12.074,-14.271 18.341,-21.198 0.943,-1.044 4.136,-1.629 4.869,-0.933 1.215,1.156 1.684,3.525 1.674,5.379 -0.01,1.163 -1.359,2.41 -2.283,3.464 -8.466,9.65 -16.795,19.433 -25.586,28.779 -2.265,2.408 -6.023,3.412 -9.482,5.269 M 82.72,633.451 c 1.056,-2.278 1.335,-3.863 2.271,-4.54 0.601,-0.435 2.279,0.268 3.278,0.818 1.377,0.757 2.756,1.679 3.808,2.83 7.625,8.33 17.251,13.791 26.804,19.511 6.147,3.681 11.762,8.363 17.155,13.117 1.346,1.186 0.915,4.386 1.301,6.66 -1.721,-0.188 -3.823,0.198 -5.103,-0.653 -13.106,-8.723 -26.239,-17.424 -38.996,-26.643 -4.115,-2.975 -7.138,-7.46 -10.518,-11.1 m 1386.171,-92.296 c -0.958,1.452 -1.604,2.715 -2.51,3.75 -2.327,2.66 -5.175,4.952 -7.095,7.866 -7.824,11.87 -17.459,22.116 -27.872,31.66 -3.164,2.899 -6.472,6.422 -11.615,3.857 -1.093,-0.545 -2.207,-1.046 -3.313,-1.566 0.812,-1.057 1.458,-2.317 2.462,-3.138 10.754,-8.799 21.339,-17.687 29.276,-29.371 3.755,-5.529 8.351,-10.526 12.917,-15.437 0.983,-1.057 3.552,-1.14 5.245,-0.842 0.962,0.169 1.627,2.019 2.505,3.221 M 744.624,-484.567 c 0,1.172 0.136,1.893 -0.028,2.537 -0.372,1.463 -0.892,2.888 -1.352,4.329 -0.597,-1.199 -0.99,-2.581 -1.85,-3.547 -0.826,-0.924 -2.196,-2.079 -3.224,-1.987 -5.374,0.486 -9.795,-3.616 -8.018,-8.375 1.986,-5.317 5.284,-10.14 7.313,-15.445 1.198,-3.134 2.723,-4.474 5.863,-5.797 3.938,-1.659 5.604,-0.483 7.636,2.391 0.726,1.026 2.361,1.409 4.383,2.531 -0.316,4.317 0.757,9.909 -1.423,13.562 -2.072,3.474 -0.57,11.528 -9.3,9.801 M 103.982,605.86 c 0.856,3.198 1.085,5.331 1.98,7.136 2.088,4.213 3.535,9.543 6.967,12.134 8.253,6.229 17.33,11.444 26.388,16.508 9.241,5.166 18.931,9.524 28.229,14.594 1.529,0.833 2.055,3.507 3.045,5.33 -1.701,0.439 -3.747,1.715 -5.045,1.179 -6.658,-2.75 -13.236,-5.753 -19.616,-9.097 -3.845,-2.015 -6.967,-5.709 -10.954,-7.097 -12.796,-4.453 -24.353,-10.417 -32.372,-21.814 -4.613,-6.554 -4.594,-8.859 0.012,-15.437 0.437,-0.625 0.591,-1.448 1.366,-3.436 m 827.192,226.074 c -1.439,4.129 -4.5,4.946 -9.937,3.037 -6.637,-2.331 -13.544,-4.139 -19.81,-7.234 -12.089,-5.971 -25.504,-10.296 -32.841,-23.117 -0.322,-0.562 -0.993,-0.93 -1.518,-1.37 -3.973,-3.335 -8.503,-6.199 -11.796,-10.107 -5.056,-6.003 -9.376,-12.645 -13.78,-19.169 -2.16,-3.199 -3.514,-6.726 0.733,-9.916 3.247,4.47 4.477,-0.72 7.17,-1.954 0.919,2.156 1.684,4.064 2.543,5.931 0.637,1.383 1.275,2.793 2.124,4.047 1.91,2.821 5.498,5.482 5.626,8.335 0.291,6.416 5.31,8.602 8.951,11.391 10.303,7.897 21.045,15.28 32.033,22.2 4.057,2.556 4.932,5.008 3.127,9.09 9.09,-2.332 17.638,-2.343 25.602,2.545 3.87,2.375 7.613,4.977 11.281,7.657 1.385,1.012 2.691,2.387 3.452,3.89 0.356,0.704 -0.653,3.026 -1.071,3.034 -1.979,0.035 -4.47,0.156 -5.843,-0.934 -2.247,-1.783 -3.77,-4.479 -6.046,-7.356 M 189.112,640.894 c 0.166,-0.417 0.332,-0.833 0.498,-1.25 -8.449,-4.684 -17.012,-9.177 -25.321,-14.097 -11.548,-6.837 -23.209,-13.557 -34.211,-21.206 -5.19,-3.608 -9.155,-9.102 -13.211,-14.115 -0.847,-1.048 0.345,-3.744 0.598,-5.68 1.631,0.596 3.554,0.833 4.83,1.868 2.175,1.762 3.653,4.443 5.925,6.014 26.634,18.421 53.781,35.901 85.297,45.123 3.009,0.881 6.942,8.623 5.631,11.393 -0.583,1.234 -2.955,2.815 -3.892,2.482 -4.021,-1.427 -7.911,-3.325 -11.652,-5.405 -3.299,-1.834 -6.336,-4.136 -9.489,-6.231 -0.313,0.451 -0.625,0.902 -0.937,1.354 0.971,0.874 1.943,1.749 2.751,2.477 -1.499,6.128 -5.155,6.838 -10.101,4.743 -6.448,-2.731 -12.923,-5.398 -19.387,-8.092 5.611,4.834 11.928,8.486 17.955,12.565 1.588,1.076 2.281,3.475 3.384,5.267 -2.222,0.622 -4.44,1.691 -6.669,1.714 -1.585,0.017 -3.254,-1.26 -4.764,-2.163 -3.792,-2.269 -7.756,-4.345 -11.217,-7.054 -7.562,-5.917 -14.875,-12.154 -22.244,-18.314 -2.448,-2.046 -3.578,-6.656 -8.374,-3.91 -0.566,0.323 -2.103,-0.436 -2.825,-1.094 -5.754,-5.245 -11.683,-10.346 -16.915,-16.078 -1.209,-1.325 0.059,-4.909 0.186,-7.454 2.154,0.416 4.663,0.263 6.4,1.346 7.014,4.376 13.544,9.562 20.712,13.642 9.467,5.39 19.277,10.208 29.112,14.911 5.804,2.775 11.942,4.852 17.93,7.244 m 27.836,90.784 c -3.216,1.378 -5.09,2.29 -7.038,2.996 -9.947,3.604 -19.929,7.108 -29.868,10.732 -33.167,12.095 -66.254,24.41 -99.507,36.263 -15.927,5.677 -32.086,10.739 -48.292,15.568 -4.782,1.424 -10.097,0.995 -15.145,1.598 -9.368,1.119 -18.713,2.435 -28.082,3.543 -4.863,0.576 -10.252,-0.264 -14.522,1.579 -6.534,2.82 -13.123,0.437 -15.892,-6.04 -3.322,-7.77 -0.157,-14.349 1.807,-21.758 7.217,0.896 14.28,1.774 21.359,2.653 0.187,1.109 0.452,1.804 0.395,2.472 -0.595,6.978 -0.567,6.902 7.205,7.259 20.899,0.964 40.929,-4.464 61.117,-8.32 9.01,-1.721 17.799,-5.277 26.285,-8.935 29.629,-12.772 59.88,-23.444 91.786,-28.892 3.345,-0.571 6.889,-0.022 10.211,-0.666 4.23,-0.818 8.382,-2.164 12.471,-3.565 7.397,-2.536 14.71,-5.316 22.102,-7.868 0.601,-0.207 1.537,0.555 3.608,1.381 M 597.929,266.307 c -2.027,0.908 -3.529,2.043 -5.138,2.225 -7.699,0.87 -15.421,2.003 -23.148,2.105 -67.858,0.902 -135.718,1.679 -203.581,2.255 -7.377,0.062 -14.827,-1.029 -22.136,-2.232 -9.101,-1.498 -11.355,-6.597 -11.419,-14.041 -0.055,-6.451 4.363,-9.178 13.155,-9.183 69.305,-0.045 138.61,-0.048 207.916,-0.141 7.435,-0.01 14.868,-0.613 22.305,-0.753 7.2,-0.136 14.405,-0.029 21.651,-0.029 -0.426,4.255 -0.805,8.031 -1.208,12.065 -1.064,0.14 -2.178,0.287 -3.615,0.476 1.679,2.333 3.167,4.403 5.218,7.253 m 642.564,-36.271 c -0.482,4.552 -2.18,7.147 -6.507,7.712 -27.321,3.57 -54.542,8.55 -81.976,10.443 -35.3,2.435 -70.765,2.717 -106.169,3.337 -28.17,0.494 -56.357,0.246 -84.531,-0.089 -3.245,-0.039 -7.951,-1.874 -9.423,-4.378 -6.292,-10.699 -4.988,-24.32 12.572,-25.319 27.582,-1.569 55.148,-3.937 82.75,-4.486 41.618,-0.827 83.263,-0.255 124.894,-0.544 12.89,-0.09 25.778,-0.954 38.658,-1.642 6.536,-0.35 13.043,-1.384 19.58,-1.591 7.512,-0.239 9.525,2.318 9.177,9.962 -0.053,1.147 0.908,2.626 1.84,3.454 0.997,0.884 2.517,1.178 3.809,1.73 -0.225,0.47 -0.449,0.94 -0.675,1.411 z M 579.47,222.261 c 5.315,0.878 11.278,1.794 17.202,2.918 0.825,0.156 1.702,1.228 2.067,2.085 0.165,0.387 -0.739,1.678 -1.378,1.887 -4.478,1.464 -8.968,3.719 -13.539,3.934 -22.639,1.067 -45.3,1.997 -67.96,2.197 -41.317,0.366 -82.639,0.314 -123.959,0.132 -9.248,-0.041 -18.498,-1.264 -27.727,-2.154 -1.225,-0.118 -2.311,-1.516 -3.497,-2.264 -0.686,-0.434 -1.403,-0.913 -2.172,-1.1 -13.217,-3.219 -27.514,3.488 -40.463,-4.937 -2.664,-1.733 -4.454,-1.855 -4.026,-5.367 0.221,-1.812 -0.901,-3.75 -0.936,-5.64 -0.028,-1.569 0.122,-3.888 1.107,-4.589 2.896,-2.062 6.113,-4.523 9.447,-4.956 9.214,-1.199 18.455,-2.169 27.667,-3.381 19.028,-2.503 38.378,-2.855 57.615,-3.403 18.073,-0.515 36.172,-0.152 54.26,-0.16 35.819,-0.016 71.639,-0.083 107.458,0.02 7.264,0.021 11.629,3.525 11.94,10.749 0.203,4.718 -2.032,9.54 -3.106,14.029 m -65.329,172.105 c 0.427,0.123 2.067,0.784 3.77,1.053 25.184,3.977 49.651,10.537 73.193,20.378 3.495,1.461 6.895,3.235 10.122,5.218 1.665,1.023 2.853,2.822 4.876,4.911 -0.384,1.502 -1.065,4.174 -1.761,6.906 h 4.97 c 0.123,0.626 0.246,1.253 0.369,1.88 -2.633,0.511 -5.265,1.02 -7.898,1.53 0.023,0.273 0.045,0.546 0.067,0.818 1.144,0.224 2.288,0.449 3.484,0.684 -2.19,6.939 -3.773,7.039 -11.616,4.764 -8.183,-2.374 -15.851,-6.55 -23.704,-10.029 -5.116,-2.266 -10.194,-3.755 -15.924,-4.629 -13.167,-2.008 -26.079,-5.84 -38.991,-9.315 -7.042,-1.896 -13.824,-4.734 -20.811,-6.857 -7.078,-2.152 -14.426,-3.497 -21.364,-6.005 -9.631,-3.481 -19.464,-5.095 -29.61,-4.965 -5.997,0.077 -11.999,0.979 -17.98,0.817 -16.242,-0.436 -32.475,-1.247 -48.711,-1.899 -16.81,-0.674 -33.647,-1.832 -50.251,2.151 -2.492,0.598 -4.887,1.594 -7.345,2.345 -2.828,0.866 -5.694,2.409 -8.514,2.346 -7.045,-0.158 -14.157,-0.598 -21.074,-1.851 -3.66,-0.662 -8.638,-0.097 -10.014,-5.841 -0.803,-3.347 -1.025,-7.885 -6.642,-7.669 -0.701,0.027 -2.381,-2.796 -2.081,-3.876 0.715,-2.574 1.757,-5.703 3.734,-7.135 3.123,-2.264 7.087,-3.408 10.76,-4.862 2.534,-1.002 6.64,-0.276 4.506,-5.375 -2.548,-6.089 -1.577,-7.796 4.848,-9.109 1.884,-0.386 3.889,-0.402 5.821,-0.289 6.859,0.403 13.826,0.32 20.528,1.594 6.377,1.213 13.677,-0.193 18.886,5.379 0.33,0.353 1.246,0.296 1.863,0.218 3.076,-0.386 6.316,-1.679 9.176,-1.09 5.003,1.033 11.854,-1.819 13.793,4.596 17.489,-1.101 33.687,4.254 50.192,6.471 16.787,2.255 33.466,5.303 51.176,8.162 0,-6.654 -0.098,-13 0.018,-19.342 0.316,-17.191 0.27,-34.406 1.244,-51.562 0.718,-12.665 4.476,-24.54 15.642,-32.313 6.707,-4.669 17.222,-2.662 21.429,4.101 4.138,6.654 5.641,13.668 5.848,21.19 0.35,12.75 0.358,25.513 0.96,38.25 0.74,15.706 1.94,31.391 3.016,48.251 M 708.455,-79.163 c -0.159,0.35 -0.317,0.701 -0.476,1.051 1.592,-0.252 3.175,-0.621 4.776,-0.735 3.613,-0.256 7.296,-0.038 10.833,-0.666 3.46,-0.615 6.787,-2.008 10.152,-3.12 18.81,-6.211 37.688,-12.225 56.386,-18.756 8.992,-3.14 17.692,-7.147 26.431,-10.977 9.753,-4.274 18.068,-11.919 29.493,-12.322 1.638,-0.057 3.322,-1.158 4.838,-2.031 11.54,-6.646 23.118,-13.23 34.529,-20.093 6.766,-4.067 16.163,-2.41 19.033,3.775 3.281,7.07 0.727,19.424 -4.33,25.418 -6.477,7.677 -14.954,11.967 -23.654,16.345 -10.343,5.203 -20.207,11.347 -30.439,16.784 -8.176,4.344 -16.582,8.255 -24.902,12.325 -11.665,5.703 -23.196,11.71 -35.065,16.951 -8.62,3.807 -17.658,6.688 -26.584,9.765 -3.277,1.129 -6.816,1.478 -10.144,2.485 -1.936,0.586 -4.324,1.302 -5.412,2.771 -3.959,5.341 -9.762,7.658 -15.543,7.088 -6.548,-0.646 -13.03,-3.233 -19.238,-5.731 -7.508,-3.022 -14.388,-7.267 -23.084,-7.051 -3.933,0.098 -8.075,-2.218 -11.873,-3.977 -6.724,-3.116 -13.423,-6.363 -19.821,-10.087 -5.004,-2.912 -9.637,-6.503 -14.245,-10.04 -3.079,-2.363 -5.589,-5.503 -8.762,-7.707 -20.321,-14.115 -40.655,-28.217 -61.215,-41.98 -5.825,-3.899 -9.826,-8.698 -12.028,-15.229 -1.359,-4.029 1.642,-5.958 3.992,-7.846 1.474,-1.183 3.796,-1.309 6.612,-2.18 1.513,-4.186 3.256,-5.043 8.468,-2.656 1.913,0.876 3.652,2.182 5.363,3.438 4.048,2.969 7.756,6.788 13.578,4.153 0.828,-0.375 2.205,-0.097 3.104,0.34 6.16,2.99 12.467,5.756 18.337,9.249 11.827,7.038 23.431,14.452 35.071,21.8 4.223,2.666 8.063,6.021 12.474,8.292 7.126,3.667 14.561,6.737 21.901,9.981 3.896,1.721 7.991,3.032 11.764,4.977 3.391,1.747 6.465,4.107 9.68,6.196 m 457.411,501.592 c -4.843,3.452 -10.595,1.728 -15.79,3 -10.653,2.608 -21.923,2.766 -32.96,3.696 -6.867,0.578 -13.771,0.704 -20.657,1.063 -6.806,0.356 -13.834,-0.18 -20.35,1.394 -6.217,1.503 -12.388,0.086 -18.754,2.117 -9.536,3.041 -19.879,3.575 -29.893,5.087 -7.61,1.148 -15.519,1.246 -22.795,3.453 -9.674,2.933 -18.986,7.195 -28.217,11.405 -5.824,2.655 -11.513,4.597 -17.957,3.225 -2.522,-0.537 -4.751,-5.586 -3.444,-8.745 1.016,1.168 1.906,2.19 2.916,3.353 0.515,-0.868 0.919,-1.286 1.029,-1.771 1.635,-7.238 1.904,-15.224 11.269,-17.685 2.395,-0.629 4.534,-2.322 6.716,-3.65 3.5,-2.129 6.676,-5.264 10.456,-6.356 7.254,-2.096 14.809,-3.226 22.289,-4.453 16.071,-2.638 32.182,-5.029 48.254,-7.661 2.7,-0.442 5.287,-1.579 7.976,-2.411 -0.707,-2.777 -1.58,-4.952 -1.779,-7.187 -1.33,-14.981 -2.811,-29.958 -3.648,-44.97 -0.582,-10.433 0.04,-20.928 -0.339,-31.377 -0.38,-10.432 5.89,-21.155 15.175,-25.834 1.73,-0.871 2.482,-3.678 3.686,-5.592 -1.677,-0.687 -3.397,-2.062 -5.024,-1.959 -35.683,2.247 -71.12,-1.377 -106.564,-4.475 -8.836,-0.772 -14.396,-5.647 -13.628,-15.263 0.475,-5.946 3.085,-9.072 9.159,-9.326 5.136,-0.214 10.283,-0.394 15.421,-0.296 34.373,0.658 68.742,1.702 103.118,2.031 45.921,0.438 91.848,0.318 137.771,0.529 2.631,0.013 5.258,0.853 7.965,1.321 -3.032,10.907 -3.65,11.363 -13.684,11.75 -6.729,0.259 -13.521,0.137 -20.164,1.062 -16.118,2.249 -32.114,5.403 -48.256,7.436 -12.105,1.526 -24.366,1.787 -36.536,2.851 -1.71,0.15 -4.689,1.644 -4.703,2.551 -0.056,3.826 0.598,7.703 1.343,11.493 1.422,7.24 4.109,14.387 4.435,21.655 0.708,15.753 0.826,31.585 0.073,47.331 -0.467,9.788 -2.969,19.479 -4.561,29.213 -0.219,1.334 -0.462,2.664 -0.941,5.411 6.787,-0.621 12.813,-1.225 18.848,-1.714 9.671,-0.783 19.405,-1.061 29.014,-2.315 22.794,-2.976 45.484,-6.834 68.332,-9.239 4.076,-0.43 11.006,-3.895 14.134,3.509 0.185,0.441 2.324,0.058 3.949,0.058 -0.982,-1.202 -1.521,-1.862 -2.25,-2.756 5.23,-1.756 9.86,-3.309 14.489,-4.863 2.589,-0.223 4.884,-1.256 7.261,-1.5 5.02,-0.515 10.799,0.819 14.953,-1.248 5.309,-2.641 9.699,-1.74 14.943,-1.263 8.16,0.74 7.471,5.595 6.928,11.063 -0.045,0.448 0.53,0.924 0.653,1.428 1.302,5.301 -2.551,10.41 -7.543,10.835 -11.199,0.954 -22.403,2.006 -33.54,3.502 -13.029,1.751 -25.961,4.229 -38.99,5.999 -12.881,1.751 -25.898,2.587 -38.709,4.716 -4.534,0.754 -7.371,-0.385 -10.326,-3.075 -0.642,-0.583 -1.379,-1.061 -2.07,-1.588 -0.231,0.199 -0.459,0.398 -0.689,0.597 0.725,1.458 1.45,2.915 2.206,4.438 m 132.221,234.054 c -33.307,11.653 -66.884,15.436 -100.947,22.676 5.219,2.439 9.168,5.09 13.506,6.167 16.4,4.073 32.302,10.153 49.624,10.514 10.902,0.226 21.733,2.85 32.647,3.842 17.854,1.623 35.495,5.021 53.599,4.749 18.02,-0.273 36.063,1.201 54.102,1.621 10.763,0.25 21.542,0.061 32.305,-0.23 1.679,-0.046 4.471,-1.401 4.779,-2.64 1.98,-7.96 7.985,-8.817 14.636,-9.479 19.716,-1.965 39.424,-4.034 59.095,-6.39 7.728,-0.926 15.409,-2.474 23.005,-4.199 6.21,-1.411 12.346,-3.287 18.326,-5.476 1.275,-0.467 2.878,-3.752 2.374,-4.754 -2.758,-5.471 -0.142,-7.684 4.588,-9.188 1.676,-0.532 3.207,-1.522 4.88,-2.069 11.442,-3.741 22.874,-7.513 34.375,-11.062 3.538,-1.092 4.961,-3.253 4.535,-6.661 -1.425,-11.378 0.044,-22.938 -3.777,-34.236 -3.44,-10.177 -5.132,-20.949 -7.537,-31.472 -4.12,-18.028 -9.323,-35.768 -16.75,-52.677 -4.873,-11.095 -11.44,-21.435 -16.95,-32.265 -2.895,-5.688 -5.094,-11.728 -7.73,-17.552 -0.61,-1.347 -1.684,-2.495 -2.616,-3.68 -1.61,-2.048 -3.684,-3.841 -4.85,-6.109 -7.352,-14.309 -14.67,-28.641 -21.644,-43.135 -2.74,-5.694 -0.481,-11.466 1.641,-17.43 6.538,9.017 12.159,18.34 17.83,27.632 2.729,4.472 4.673,10.011 8.551,13.052 5.463,4.286 8.759,9.591 11.67,15.433 10.02,20.118 20.513,40.029 29.752,60.503 8.382,18.573 21.785,34.655 26.463,55.109 1.379,6.023 2.588,11.043 -1.607,16.21 -0.974,1.199 -1.338,3.255 -1.261,4.883 0.257,5.422 -0.388,11.327 1.563,16.134 3.798,9.36 3.063,19.082 4.411,28.624 0.176,1.246 0.773,2.762 1.696,3.522 6.75,5.561 7.113,11.164 -0.317,15.466 -12.791,7.404 -25.84,14.496 -39.308,20.547 -7.813,3.511 -16.702,4.571 -25.016,7.039 -6.922,2.055 -13.726,4.516 -20.543,6.908 -0.883,0.311 -1.868,1.147 -2.234,1.988 -2.071,4.763 -6.164,6.537 -10.761,7.752 -5.927,1.568 -11.754,3.615 -17.755,4.795 -14.164,2.784 -28.313,6.207 -42.635,7.462 -17.065,1.496 -34.302,1.132 -51.468,1.319 -13.614,0.148 -27.238,0.15 -40.845,-0.247 -7.89,-0.231 -16.393,1.996 -23.232,-4.321 -0.238,-0.221 -0.995,0.073 -1.496,0.189 -10.828,2.522 -21.813,1.942 -32.666,0.847 -21.248,-2.145 -42.446,-4.815 -63.636,-7.487 -6.556,-0.827 -13.021,-2.363 -19.573,-3.583 0.351,-2.763 0.587,-4.618 0.823,-6.473 -1.834,0.443 -2.571,1.72 -3.666,2.48 -1.212,0.842 -2.93,1.952 -4.119,1.666 -7.191,-1.728 -14.357,-3.623 -21.401,-5.87 -4.286,-1.368 -8.806,-2.85 -8.317,-9.133 0.069,-0.903 -3.119,-2.944 -4.806,-2.95 -8.069,-0.031 -16.136,0.609 -24.209,0.727 -11.12,0.163 -22.459,-1.329 -33.326,0.345 -36.66,5.646 -73.441,8.72 -110.518,8.732 -10.807,0.003 -21.639,0.242 -32.416,0.99 -8.592,0.596 -17.118,2.131 -24.457,3.091 -2.045,5.909 -3.45,11.173 -5.671,16.064 -2.483,5.465 -5.645,10.627 -8.62,15.858 -9.352,16.438 -18.785,32.828 -28.104,49.284 -1.444,2.551 -2.311,5.43 -3.741,7.992 -0.726,1.299 -2.062,3.111 -3.21,3.177 -5.647,0.328 -11.361,0.542 -16.978,0.009 -3.715,-0.353 -6.812,-2.446 -5.161,-7.184 1.391,-3.991 2.677,-8.052 4.472,-11.863 5.63,-11.959 11.644,-23.738 17.183,-35.739 3.371,-7.304 6.073,-14.915 9.2,-22.336 2.235,-5.306 4.678,-10.525 7.313,-16.418 -3.8,0 -6.799,0.127 -9.785,-0.023 -11.993,-0.6 -23.868,0.773 -35.981,-2.854 -10.454,-3.13 -22.075,-3.265 -33.169,-3.189 -40.764,0.279 -81.522,1.261 -122.284,1.841 -14.709,0.209 -29.423,0.015 -44.134,0.039 -2.48,0.004 -4.964,0.125 -7.439,0.291 -5.716,0.382 -7.631,5.923 -11.578,8.719 -0.467,0.331 -0.412,1.683 -0.287,2.515 1.436,9.51 2.636,19.069 4.483,28.501 2.794,14.271 6.12,28.439 9.075,42.68 1.151,5.548 -1.617,9.69 -7.595,11.461 0.715,2.221 1.426,4.431 1.932,6.004 3.163,-0.862 5.747,-1.566 8.625,-2.35 3.664,12.002 6.997,24.178 11.104,36.087 6.203,17.983 12.812,35.823 25.668,50.51 1.206,1.378 1.88,4.977 0.982,6.137 -3.967,5.129 -0.617,8.601 2.214,11.977 5.663,6.756 11.748,13.157 17.49,19.849 4.948,5.77 9.228,12.18 14.616,17.48 4.16,4.09 9.888,6.227 15.167,8.953 16.53,8.534 34.281,13.024 51.968,17.226 18.829,4.473 38.199,3.318 57.421,0.46 17.935,-2.667 34.318,-9.215 50.051,-17.882 4.136,-2.278 9.095,-3.271 12.845,-5.997 8.665,-6.299 17.084,-13.001 25.106,-20.1 7.241,-6.409 14.239,-13.202 20.578,-20.492 6.214,-7.146 11.783,-14.921 17.021,-22.826 3.266,-4.93 5.395,-10.615 7.708,-15.303 -10.423,3.238 -20.584,6.394 -30.36,9.431 -1.478,1.322 -2.67,3.163 -4.301,3.721 -9.974,3.413 -19.91,7.104 -30.135,9.55 -6.749,1.615 -13.955,1.602 -20.968,1.712 -3.227,0.051 -6.842,-2.09 -5.613,-5.779 1.064,-3.193 2.351,-7.554 7.328,-7.727 14.038,-0.487 27.34,-3.704 40.516,-8.83 19.876,-7.732 39.173,-16.384 56.761,-28.498 3.567,-2.456 7.173,-3.809 10.73,-1.435 4.54,3.031 4.994,7.315 1.922,12.619 -5.498,9.491 -12.448,18.369 -16.49,28.427 -7.728,19.236 -22.574,32.866 -35.984,47.299 -10.219,10.998 -23.084,19.958 -35.921,27.992 -13.865,8.679 -29.05,15.252 -43.7,22.667 -1.39,0.703 -3.04,0.939 -4.596,1.258 -4.659,0.959 -9.315,1.956 -14.004,2.742 -5.725,0.96 -11.46,2.166 -17.233,2.461 -7.903,0.405 -15.849,0.159 -23.772,-0.002 -8.81,-0.18 -17.697,0.041 -26.394,-1.1 -5.692,-0.746 -11.594,-2.747 -14.233,-7.377 -5.155,-0.328 -9.487,-0.199 -13.663,-0.944 -14.916,-2.66 -27.586,-10.397 -39.804,-18.763 -2.723,-1.864 -4.025,-5.787 -6.023,-8.733 -0.755,-1.115 -1.416,-2.528 -2.497,-3.139 -2.162,-1.221 -5.011,-1.491 -6.802,-3.046 -2.992,-2.594 -7.141,-4.9 -5.761,-9.752 -1.713,-0.604 -3.527,-0.787 -4.694,-1.752 -2.198,-1.816 -4.066,-4.045 -5.994,-6.172 -4.633,-5.116 -10.569,-9.388 -11.189,-16.325 -2.005,-1.506 -3.844,-2.396 -4.996,-3.837 -4.623,-5.783 -9.382,-11.506 -13.445,-17.677 -7.561,-11.482 -15.145,-23.022 -19.206,-36.367 -2.827,-9.29 -4.739,-18.947 -8.464,-27.852 -4.704,-11.247 -8.342,-22.526 -8.386,-34.773 -0.009,-2.612 0.421,-5.224 0.642,-7.752 -3.479,-4.533 -5.317,-9.893 -5.432,-16.055 -0.09,-4.882 2.739,-7.072 7.343,-8.533 -6.482,-0.244 -5.503,-5.376 -4.302,-7.725 3.778,-7.383 0.838,-14.478 0.473,-21.683 -0.285,-5.609 -0.454,-11.231 -0.994,-16.816 -0.149,-1.538 -1.759,-4.337 -2.164,-4.243 -8.675,2.005 -19.01,-2.239 -25.924,6.637 -0.424,0.545 -1.596,0.701 -2.424,0.709 -5.836,0.059 -11.672,0.031 -17.42,0.031 -0.868,-1.814 -1.605,-3.353 -2.42,-5.052 -2.317,1.245 -4.365,2.345 -7.483,4.02 1.245,-3.335 -1.665,-7.301 3.958,-7.102 0.362,0.013 4.709,-1.659 2.84,-5.381 -1.993,-3.971 -5.327,-3.738 -8.585,-3.636 -24.408,0.773 -48.813,1.658 -73.217,2.572 -1.147,0.043 -3.129,0.488 -3.269,1.084 -0.963,4.135 -4.114,3.054 -6.779,3.177 -14.314,0.657 -28.653,0.978 -42.936,2.045 -17.77,1.327 -35.472,3.598 -53.248,4.818 -10.2,0.7 -20.487,0.127 -31.611,0.127 3.512,-6.152 0.968,-7.012 -3.56,-7.579 -7.354,-0.921 -15.118,-1.449 -21.782,-4.307 -9.272,-3.978 -17.155,-1.757 -25.08,2.316 -5.621,2.89 -10.777,6.669 -16.27,9.827 -5.518,3.172 -10.922,6.877 -16.869,8.886 -8.463,2.859 -17.494,3.991 -26.071,6.566 -13.36,4.013 -26.533,8.645 -39.811,12.934 -1.615,0.522 -3.392,0.545 -6.002,0.934 30.846,-17.479 60.614,-34.348 91.307,-51.74 -4.727,-1.755 -8.492,-3.152 -12.256,-4.55 0.388,-0.31 0.777,-0.62 1.165,-0.931 -2.332,-3.049 -4.663,-6.098 -6.753,-8.832 -2.239,2.171 -3.568,3.459 -4.896,4.746 -1.045,-1.452 -2.407,-2.776 -3.058,-4.388 -0.946,-2.34 -1.379,-4.888 -2.346,-8.541 -0.782,2.934 -1.223,4.589 -1.664,6.245 -1.819,-5.161 -2.178,-10.221 1.783,-14.043 1.325,-1.279 4.205,-0.946 6.375,-1.35 0.126,0.444 0.252,0.888 0.377,1.332 -1.151,1.032 -2.303,2.064 -3.632,3.256 4.194,3.187 5.916,0.811 7.146,-3.052 3.469,1.406 6.538,2.649 9.841,3.988 -0.672,0.658 -0.881,1.04 -1.174,1.122 -3.821,1.07 -3.166,3.521 -1.886,6.128 0.084,0.173 0.639,0.115 1.417,0.229 0.091,-1.463 0.177,-2.85 0.286,-4.614 3.301,-0.22 6.69,-1.028 9.854,-0.5 3.52,0.587 6.743,2.851 10.262,3.572 7.822,1.602 15.82,2.369 23.617,4.068 14.975,3.264 29.689,6.58 45.345,6.934 26.285,0.595 52.491,4.087 78.768,5.793 27.728,1.799 55.491,3.163 83.256,4.278 19.297,0.775 38.626,0.757 57.938,1.187 21.797,0.485 43.595,1.601 65.388,1.501 33.33,-0.154 66.66,-1.036 99.986,-1.788 9.023,-0.203 18.082,-0.634 27.038,-1.691 19.523,-2.306 38.957,-5.376 58.733,-4.363 10.439,0.534 20.895,0.954 31.343,0.974 29.439,0.057 58.899,0.508 88.315,-0.368 33.974,-1.013 67.914,-3.2 101.861,-5.028 19.084,-1.027 38.162,-2.238 57.222,-3.636 5.268,-0.385 10.513,-1.538 15.663,-2.783 1.367,-0.331 2.337,-2.31 4.46,-4.562 4.133,-0.21 10.065,0.623 15.257,-0.964 28.92,-8.836 58.286,-14.968 88.496,-17.032 6.495,-0.444 12.9,-2.088 19.391,-2.709 3.702,-0.355 7.495,0.24 12.848,0.479 -2.878,3.613 -4.286,6.156 -6.381,7.848 -4.205,3.394 -5.534,6.77 0.204,12.163 m 232.389,-323.28 c -3.784,7.031 -3.469,8.025 1.753,12.983 1.222,1.162 1.535,3.809 1.417,5.72 -0.137,2.235 -1.018,4.49 -1.9,6.601 -2.689,6.444 -5.784,12.728 -8.257,19.25 -3.148,8.305 -5.7,16.835 -8.795,25.161 -1.519,4.089 -4.092,7.801 -5.481,11.921 -3.718,11.029 -6.919,22.232 -10.675,33.246 -0.64,1.873 -3.015,3.155 -4.587,4.709 -0.426,-2.16 -1.117,-4.31 -1.206,-6.484 -0.096,-2.359 1.443,-6.004 0.4,-6.891 -4.141,-3.522 -2.854,-7.495 -1.669,-11.228 3.319,-10.452 6.857,-20.846 10.661,-31.132 8.382,-22.666 15.628,-45.693 19.476,-69.554 3.038,-18.844 4.619,-37.92 7.033,-56.869 1.561,-12.264 3.431,-24.49 5.21,-36.724 0.685,-4.697 0.385,-9.98 2.524,-13.915 2.965,-5.453 3.232,-10.687 2.481,-16.35 -1.175,-8.856 -2.84,-17.669 -3.538,-26.56 -0.398,-5.08 -1.866,-11.003 2.893,-13.913 -1.754,-6.937 -4.122,-13.389 -4.91,-20.028 -1.733,-14.586 -2.251,-29.32 -4.054,-43.895 -1.435,-11.592 -3.721,-23.108 -6.215,-34.53 -2.531,-11.584 -5.485,-23.098 -8.8,-34.484 -3.263,-11.21 -5.992,-22.838 -11.199,-33.149 -5.259,-10.413 -5.748,-22.186 -12.504,-32.301 -8.469,-12.679 -14.544,-27.013 -21.113,-40.889 -14.437,-30.494 -35.419,-56.948 -52.379,-85.857 -8.168,-13.921 -19.654,-24.586 -31.011,-35.322 -18.458,-17.452 -37.781,-33.993 -56.856,-50.786 -8.022,-7.062 -15.941,-14.35 -24.631,-20.512 -9.615,-6.817 -20.158,-12.308 -30.121,-18.655 -13.931,-8.876 -28.578,-16.167 -44.238,-21.482 -11.708,-3.973 -23.101,-9.021 -34.994,-12.278 -31.925,-8.742 -64.035,-16.821 -96.093,-25.076 -12.974,-3.341 -25.953,-6.686 -39.028,-9.594 -9.655,-2.148 -19.412,-4.057 -29.225,-5.228 -11.412,-1.361 -22.967,-1.5 -34.404,-2.701 -30.924,-3.25 -61.764,-7.446 -92.742,-10.008 -28.397,-2.347 -56.916,-3.723 -85.407,-4.304 -33.859,-0.689 -67.746,-0.09 -101.621,0.023 -2.072,0.007 -4.172,0.524 -6.206,1.024 -6.398,1.57 -12.687,4.072 -19.167,4.718 -16.902,1.688 -33.889,2.493 -50.829,3.816 -13.946,1.091 -27.943,1.902 -41.794,3.76 -22.882,3.068 -46.132,1.185 -68.865,8.029 -16.692,5.025 -34.904,4.081 -51.866,9.751 -10.511,3.513 -21.736,4.829 -32.449,7.814 -21.155,5.894 -42.169,12.29 -63.268,18.389 -2.344,0.678 -4.849,0.883 -7.297,1.111 -6.39,0.595 -13.175,-0.084 -19.101,1.872 -9.877,3.259 -19.323,7.935 -28.743,12.45 -18.493,8.861 -36.819,18.073 -55.26,27.044 -19.323,9.401 -37.948,19.928 -55.191,32.842 -7.088,5.309 -14.615,10.025 -21.834,15.16 -18.676,13.29 -37.551,26.32 -55.833,40.132 -10.394,7.853 -19.779,17.04 -29.618,25.627 0.347,0.561 0.694,1.122 1.042,1.685 2.455,-0.515 4.909,-1.029 8.282,-1.734 -2.542,3.273 -4.099,5.904 -6.232,7.929 -19.473,18.486 -36.034,39.518 -52.84,60.33 -2.884,3.572 -5.457,7.448 -7.746,11.43 -1.232,2.144 -0.895,5.362 -2.39,7.162 -18.829,22.649 -35.494,46.762 -49.703,72.56 -1.473,2.675 -3,4.451 -6.463,4.42 -1.377,-0.011 -3.366,1.651 -4.05,3.053 -2.547,5.213 -4.887,10.553 -6.9,15.996 -3.728,10.081 -7.501,19.669 -2.704,31.213 2.396,5.769 -0.117,13.768 -1.022,20.678 -1.947,14.879 -4.337,29.7 -6.455,44.558 -1.521,10.668 -2.788,21.375 -4.431,32.023 -0.282,1.835 -1.488,4.382 -2.944,4.995 -2.66,1.121 -5.316,-0.322 -7.002,-2.77 -0.685,-0.994 -0.95,-2.275 -1.405,-3.427 -0.643,0.029 -1.285,0.057 -1.928,0.086 -0.38,5.527 -0.76,11.053 -1.059,15.407 2.786,0.872 4.452,1.393 6.797,2.126 -0.233,0.2 0.528,-0.451 1.338,-1.144 1.319,3.082 3.485,5.937 3.637,8.897 0.552,10.754 0.588,21.544 0.524,32.319 -0.096,16.294 -0.576,32.583 3.897,48.528 0.484,1.725 -0.356,3.912 -0.867,5.807 -1.231,4.565 -4.375,8.346 -3.213,13.869 1.931,9.181 2.302,18.683 4.055,27.912 1.764,9.29 4.56,18.38 6.561,27.632 0.468,2.163 -0.008,4.793 -0.826,6.907 -1.22,3.149 -0.742,5.288 1.871,7.43 1.506,1.235 3.195,3.051 3.497,4.827 4.158,24.402 7.99,48.859 12.131,73.264 1.41,8.307 2.791,16.726 5.4,24.696 2.788,8.518 7.048,16.551 10.572,24.836 0.668,1.57 1.674,3.608 1.19,4.949 -1.765,4.892 0.172,7.178 4.586,8.839 1.236,0.465 1.813,2.68 2.692,4.093 -2.079,0.544 -4.248,1.703 -6.205,1.417 -1.339,-0.195 -2.495,-2.324 -3.533,-3.735 -1.838,-2.5 -3.525,-5.112 -5.275,-7.676 4.529,20.99 10.25,41.306 26.71,56.418 3.013,2.766 5.026,5.542 0.691,9.081 2.786,3.325 4.861,6.844 7.859,9.174 6.739,5.237 8.599,11.35 5.68,19.344 -1.68,4.6 -1.583,10.215 -4.239,14.005 -3.922,5.597 -6.672,11.588 -9.055,17.773 -4.63,12.019 -8.667,24.267 -13.181,36.333 -3.889,10.392 -8.103,20.663 -12.171,30.988 -2.608,6.621 -5.49,13.15 -7.747,19.888 -2.836,8.471 -5.006,17.165 -7.823,25.643 -0.634,1.909 -2.759,3.322 -3.961,4.695 0.362,1.389 1.411,3.285 1.219,5.046 -0.974,8.914 -2.174,17.808 -3.52,26.674 -0.34,2.241 -0.885,5.439 -2.415,6.314 -3.857,2.208 -8.328,3.343 -12.736,4.975 -0.326,-4.817 -0.595,-8.805 -0.87,-12.868 -1.329,0.356 -2.226,0.596 -3.863,1.034 1.225,-1.899 1.941,-3.009 2.815,-4.366 -1.413,-0.451 -2.433,-0.778 -4.474,-1.431 2.722,-1.392 4.504,-2.305 6.983,-3.573 -2.126,-0.814 -3.164,-1.212 -3.385,-1.296 0.595,-2.091 1.398,-3.671 1.428,-5.266 0.071,-3.618 -1.153,-7.498 -0.232,-10.823 3.676,-13.277 7.712,-26.47 12.096,-39.532 7.021,-20.918 14.325,-41.743 21.761,-62.517 1.27,-3.549 3.568,-6.813 5.795,-9.918 4.104,-5.724 9.094,-10.888 12.636,-16.92 4.082,-6.953 7.242,-14.492 10.274,-21.991 0.965,-2.386 0.965,-5.703 0.127,-8.156 -1.41,-4.123 -3.638,-8.019 -5.893,-11.788 C 18.406,546.741 12.411,540.141 9.719,532.368 6.937,524.331 -2.322,519.804 -1.4,510.127 c 0.078,-0.824 -1.644,-1.733 -2.334,-2.737 -1.366,-1.99 -2.593,-4.073 -4.052,-6.392 1.905,0.139 3.362,0.245 5.808,0.424 -4.854,-16.687 -9.508,-32.69 -14.166,-48.693 -0.338,-1.162 -1.283,-3.113 -0.953,-3.358 4.101,-3.039 1.106,-6.948 0.437,-9.604 -3.407,-13.526 -7.542,-26.877 -11.725,-40.195 -1.515,-4.825 -3.028,-10.067 -6.096,-13.863 -2.634,-3.257 -4.882,-6.105 -5.64,-10.296 -0.456,-2.526 -2.047,-4.827 -2.935,-7.298 -1.792,-4.987 -4.349,-9.907 -5.007,-15.056 -2.405,-18.801 -4.245,-37.676 -6.127,-56.541 -1.301,-13.031 -1.321,-26.278 -3.74,-39.084 -2.625,-13.899 -5.473,-27.651 -5.195,-41.854 0.134,-6.864 0.38,-13.728 0.671,-20.588 0.615,-14.498 1.049,-29.012 2.076,-43.483 0.353,-4.975 2.625,-9.791 3.296,-14.777 0.417,-3.1 -1.318,-6.537 -0.734,-9.56 5.377,-27.831 10.941,-55.628 16.713,-83.379 1.435,-6.902 3.295,-13.804 9.232,-18.718 1.067,-0.883 1.631,-3.41 1.231,-4.846 -1.46,-5.248 0.493,-9.767 2.392,-14.319 1.773,-4.25 4.031,-8.308 5.64,-12.613 3.478,-9.305 2.085,-13.513 -6.139,-19.039 0.931,-2.146 1.651,-4.531 2.909,-6.59 11.16,-18.28 22.201,-36.64 33.737,-54.681 5.403,-8.45 10.815,-17.3 17.965,-24.151 19.566,-18.749 40.721,-35.858 60.044,-54.841 43.237,-42.477 90.091,-80.596 138.358,-117.054 10.255,-7.745 21.257,-14.68 32.55,-20.82 8.644,-4.7 18.299,-7.533 27.479,-11.26 1.45,-0.59 3.795,-1.334 3.966,-2.314 0.834,-4.76 4.858,-5.284 8.119,-6.675 7.001,-2.985 14.175,-5.571 21.149,-8.616 3.869,-1.69 7.407,-3.228 10.331,1.646 2.557,-7.514 2.577,-7.525 9.674,-5.205 0.778,-0.958 1.496,-2.41 2.665,-3.147 1.844,-1.162 4.02,-1.788 6.005,-2.745 2.155,-1.038 4.252,-2.197 6.639,-3.441 0.145,2.032 0.244,3.419 0.343,4.805 1.898,-1.102 2.475,-2.584 3.248,-3.956 0.661,-1.174 1.321,-2.85 2.368,-3.224 6.051,-2.162 12.218,-3.998 18.341,-5.959 0.982,-0.314 1.974,-0.63 2.911,-1.056 3.179,-1.443 6.517,-4.454 9.467,-4.104 6.891,0.819 11.336,-4.012 16.527,-6.3 7.809,-3.441 14.586,-8.578 23.176,-2.748 1.037,-1.778 1.874,-3.213 2.12,-3.634 3.512,0.236 6.159,0.416 8.806,0.593 1.574,-1.81 3.246,-2.971 5.077,-3.337 3.602,-0.717 7.506,-0.397 10.891,-1.608 3.924,-1.402 7.275,-4.352 11.152,-5.964 4.307,-1.79 8.906,-2.904 13.428,-4.127 0.828,-0.224 2.292,0.157 2.739,0.778 0.444,0.618 0.154,1.948 -0.136,2.863 -0.416,1.312 -1.123,2.533 -1.706,3.792 1.629,0.228 3.255,0.629 4.887,0.656 9.337,0.156 15.83,-6.539 23.248,-10.539 4.23,-2.281 7.195,-2.301 10.876,-0.753 4.613,1.941 7.498,1.041 9.153,-2.955 0.227,1.952 0.454,3.905 0.731,6.288 3.239,-0.352 6.69,-0.729 10.804,-1.178 -4.253,-3.276 -4.253,-3.276 -1.85,-6.28 1.466,1.544 2.772,3.244 4.408,4.521 1.044,0.816 2.8,1.703 3.857,1.366 10.67,-3.396 22.451,-0.472 32.762,-5.792 0.36,-0.186 1.166,-0.019 1.471,0.283 2.2,2.163 3.525,1.18 5.037,-0.959 1.656,-2.34 3.722,-4.391 5.664,-6.63 0.886,0.961 2.059,2.233 3.574,3.876 -0.681,-4.441 -1.245,-8.115 -1.777,-11.582 1.924,-0.619 3.738,-1.202 4.501,-1.448 -1.306,-1.942 -2.311,-3.437 -3.173,-4.719 -5.429,3.604 -1.615,-4.369 -4.066,-4.018 -1.42,0.805 -2.665,1.509 -3.91,2.214 -0.53,-1.506 -1.272,-2.976 -1.531,-4.528 -0.266,-1.587 -0.059,-3.254 -0.059,-5.164 -0.683,0.409 -1.327,0.563 -1.476,0.924 -0.719,1.738 -1.305,3.532 -1.938,5.305 -2.195,-0.988 -4.721,-1.574 -6.52,-3.045 -4.318,-3.533 -8.506,-7.279 -12.361,-11.308 -6.287,-6.574 -14.257,-11.482 -18.185,-20.443 -1.977,-4.513 -6.736,-7.724 -9.368,-12.052 -3.953,-6.501 -7.143,-13.465 -10.552,-20.03 10.819,-8.487 9.102,-10.354 4.77,-13.195 -0.346,-4.175 -0.807,-7.042 -0.77,-9.9 0.063,-4.805 -1.053,-10.407 2.999,-13.822 9.02,-7.598 18.502,-14.711 31.422,-13.655 1.875,0.153 3.904,0.237 5.662,-0.3 11.507,-3.514 22.407,-0.837 32.053,4.928 9.061,5.413 17.407,12.277 25.25,19.404 8.555,7.774 16.841,16.047 24.013,25.081 8.021,10.105 14.666,21.301 21.893,32.034 2.749,4.083 5.449,8.199 8.906,13.403 -3.405,-20.44 -8.679,-39.051 -7.719,-58.607 0.633,-12.873 0.021,-25.802 0.331,-38.697 0.102,-4.221 1.354,-8.415 2.284,-13.803 -2.861,-10.507 1.46,-20.314 9.122,-29.76 5.397,4.968 11.196,8.328 17.85,-1.461 0,5.995 1.123,10.186 -0.211,13.337 -4.006,9.456 -5.792,18.995 -5.733,29.298 0.102,17.859 1.826,35.814 -1.265,53.813 0.4,-0.755 0.801,-1.51 1.201,-2.265 -0.44,0.092 -0.881,0.184 -1.321,0.276 4.952,19.378 9.903,38.757 14.855,58.135 0.614,-0.097 1.229,-0.195 1.844,-0.292 1.148,-4.968 2.278,-9.942 3.448,-14.906 1.705,-7.227 3.034,-14.585 5.369,-21.605 0.856,-2.573 4.124,-4.343 6.292,-6.479 1.472,1.569 2.989,3.097 4.403,4.717 1.572,1.804 3.049,3.691 4.567,5.542 0.376,-0.291 0.751,-0.582 1.127,-0.872 -0.721,-1.417 -1.444,-2.832 -2.276,-4.464 2.058,-0.448 3.838,-0.837 6,-1.307 -0.486,4.127 -3.859,8.425 1.342,11.513 0.306,0.182 0.159,1.352 0.02,2.022 -1.35,6.546 -2.804,13.073 -4.096,19.632 -0.519,2.634 -0.712,5.334 -1.22,9.307 7.79,-6.088 14.638,-11.057 21.025,-16.561 4.479,-3.861 8.713,-7.511 15.137,-5.59 1.241,-6.154 -2.571,-3.675 -5.492,-2.939 10.167,-11.054 15.187,-12.046 21.611,-5.871 1.641,-2.022 3.264,-4.025 4.888,-6.027 0.201,0.473 0.401,0.946 0.601,1.42 -0.082,-1.884 -0.164,-3.769 -0.272,-6.233 -0.718,-0.639 -2.087,-1.858 -3.254,-2.895 2.263,-2.023 4.183,-3.617 5.954,-5.359 1.908,-1.878 3.447,-4.204 5.556,-5.789 4.371,-3.284 9.664,-5.564 13.433,-9.385 19.681,-19.958 42.655,-34.386 70.196,-39.798 12.187,-2.395 25.076,-1.231 37.649,-1.608 0.804,-0.024 1.617,0.625 2.442,0.918 10.596,3.759 15.857,13.194 21.283,21.683 7.335,11.477 6.418,24.697 2.488,37.138 -3.185,10.076 -6.354,21.034 -12.751,29.019 -10.689,13.343 -22.234,26.578 -38.69,34.404 0.776,0.741 1.299,1.695 1.962,1.803 6.339,1.041 12.937,3.423 18.992,2.461 6.166,-0.979 6.517,2.515 8.208,6.308 6.883,-7.603 15.92,-8.255 25.075,-8.401 1.35,-0.021 3.299,0.172 3.973,1.041 3.635,4.679 6.837,2.659 9.768,-0.406 2.105,1.202 3.854,2.199 5.706,3.257 -5.577,2.586 -10.889,5.05 -17.329,8.036 2.39,1.216 3.515,2.126 4.769,2.371 6.427,1.257 12.863,2.506 19.34,3.462 23.238,3.434 46.574,6.278 69.72,10.237 24.913,4.261 49.665,9.466 74.465,14.374 21.365,4.227 42.532,9.221 62.832,17.329 7.208,2.879 14.259,6.258 21.647,8.549 5.592,1.733 11.579,2.635 17.44,2.949 7.971,0.427 14.591,4.022 21.257,7.624 10.982,5.931 23.508,7.338 33.774,16.518 14.609,13.064 32.685,22.158 48.287,34.229 16.181,12.517 31.718,25.997 46.538,40.105 13.795,13.131 26.746,27.236 39.205,41.658 12.663,14.66 24.801,29.85 36.074,45.591 4.442,6.205 11.65,11.785 10.485,21.082 -0.018,0.148 0.562,0.314 0.763,0.555 2.91,3.46 6.22,6.668 8.624,10.451 9.005,14.178 17.758,28.516 26.453,42.885 0.85,1.403 1.525,4.31 0.801,5.034 -4.317,4.315 -1.763,8.303 -0.152,12.525 7.36,19.271 15.233,38.374 21.813,57.909 9.771,29.002 17.576,58.58 22.444,88.856 4.596,28.579 9.264,57.146 13.67,85.754 0.852,5.533 1.227,11.278 0.777,16.84 -0.65,8.01 -2.656,15.907 -3.363,23.915 -1.217,13.739 -1.725,27.54 -2.824,41.292 -0.715,8.944 -1.748,17.875 -2.996,26.762 -2.162,15.377 -4.18,30.796 -7.086,46.039 -1.651,8.66 -2.392,8.519 -10.654,7.442 m -115.789,230.526 c 0.689,4.502 -1.78,7.197 -5.217,9.499 -9.657,6.462 -19.21,13.078 -28.919,19.459 -1.197,0.786 -3.093,0.509 -4.665,0.724 -0.114,-1.981 -0.735,-4.121 -0.186,-5.897 0.465,-1.499 2.114,-2.831 3.538,-3.799 10.175,-6.918 20.374,-13.805 30.732,-20.442 1.048,-0.671 3.199,0.381 4.84,0.633 2.296,-4.093 3.964,-8.744 7.007,-12.177 9.799,-11.055 20.352,-21.475 26.544,-35.23 0.217,-0.481 0.442,-1.107 0.847,-1.329 1.969,-1.08 4.002,-2.045 6.013,-3.051 0.108,2.061 0.961,4.468 0.19,6.118 -2.576,5.512 -5.137,11.206 -8.795,15.998 -6.85,8.975 -14.178,17.64 -21.944,25.829 -2.188,2.307 -6.591,2.511 -9.985,3.665 M -187.781,1021.138 H 1858.741 V -744.426 H -187.781 Z" /></g><g
           transform="translate(882.3213,330.8184)"
           id="g3740"><path
             id="path3742"
             style="fill:#000000;fill-opacity:1;fill-rule:evenodd;stroke:none"
             d="M 0,0 C -0.375,2.714 -0.618,4.47 -1.019,7.361 -3.398,4.309 -5.077,2.154 -6.756,0 Z m -32.496,152.08 c -0.015,0.369 -0.029,0.736 -0.044,1.105 -1.676,0.267 -3.526,1.121 -4.994,0.687 -4.069,-1.204 -8.211,-2.519 -11.906,-4.553 -10.269,-5.65 -20.97,-10.822 -30.312,-17.778 -13.245,-9.86 -25.9,-20.649 -37.89,-32.011 -7.477,-7.085 -13.154,-16.047 -19.84,-23.997 -5.854,-6.963 -8.165,-15.014 -7.857,-23.879 0.052,-1.519 1.287,-3.382 2.534,-4.413 8.05,-6.657 17.768,-7.873 27.75,-8.112 2.064,-0.05 4.523,-1.091 6.108,-0.295 4.489,2.25 9.228,4.581 12.786,8.005 16.302,15.687 33.963,30.149 45.341,50.364 5.878,10.443 12.65,20.381 18.91,30.612 3.518,5.748 6.817,11.632 10.569,18.062 -6.45,-0.362 -10.975,0.748 -14.8,5.477 1.757,0.351 2.701,0.539 3.645,0.726 m 178.09,-83.851 c 0.948,0.087 2.662,0.807 3.604,0.242 9.826,-5.896 19.242,-12.543 29.363,-17.86 7.273,-3.821 15.267,-6.688 23.273,-8.548 5.118,-1.188 10.843,0.394 16.298,0.452 9.449,0.099 17.566,8.376 17.784,17.944 0.228,9.95 -2.304,18.973 -7.229,27.623 -1.48,2.602 -0.747,6.4 -1.375,9.582 -0.25,1.267 -1.852,3.457 -2.142,3.351 -5.515,-2.047 -9.135,2.214 -11.717,4.966 -10.556,11.248 -23.569,18.45 -37.092,25.165 -6.512,3.234 -12.289,8.549 -19.09,10.462 -9.561,2.688 -19.728,3.751 -29.703,4.324 -20.117,1.153 -40.281,1.484 -60.424,2.213 -3.404,0.123 -6.797,0.537 -10.195,0.815 -0.209,-0.569 -0.417,-1.139 -0.625,-1.709 5.812,-4.699 11.735,-9.271 17.374,-14.168 1.887,-1.64 3.05,-4.109 4.976,-6.807 4.857,0.339 8.314,-1.442 5.537,-8.403 l 1.04,-0.908 c 0.58,1.471 1.159,2.942 1.925,4.89 2.903,-3.456 4.646,-6.151 6.974,-8.175 4.911,-4.269 10.113,-8.205 15.223,-12.243 6.602,-5.22 13.281,-10.345 19.817,-15.645 1.871,-1.517 4.659,-3.408 4.788,-5.283 0.378,-5.492 3.885,-7.353 8.038,-9.179 1.268,-0.559 2.203,-1.875 3.578,-3.101 m 691.081,819.673 c 8.262,1.077 9.003,1.219 10.654,-7.442 2.906,-15.243 4.924,-30.662 7.086,-46.039 1.248,-8.887 2.281,-17.817 2.996,-26.762 1.099,-13.751 1.608,-27.553 2.824,-41.292 0.707,-8.008 2.713,-15.905 3.364,-23.915 0.449,-5.562 0.074,-11.307 -0.778,-16.84 -4.406,-28.608 -9.074,-57.175 -13.67,-85.754 -4.868,-30.276 -12.672,-59.854 -22.444,-88.856 -6.58,-19.535 -14.453,-38.638 -21.812,-57.909 -1.612,-4.222 -4.166,-8.21 0.151,-12.525 0.725,-0.724 0.049,-3.631 -0.801,-5.034 -8.695,-14.369 -17.448,-28.707 -26.453,-42.885 -2.403,-3.783 -5.714,-6.991 -8.624,-10.451 -0.201,-0.241 -0.781,-0.407 -0.763,-0.554 1.165,-9.297 -6.043,-14.877 -10.485,-21.082 -11.273,-15.742 -23.411,-30.932 -36.073,-45.591 -12.459,-14.423 -25.41,-28.528 -39.205,-41.659 -14.821,-14.108 -30.358,-27.587 -46.538,-40.105 -15.603,-12.071 -33.679,-21.165 -48.288,-34.228 -10.266,-9.181 -22.792,-10.587 -33.774,-16.519 -6.666,-3.602 -13.286,-7.196 -21.257,-7.624 -5.861,-0.314 -11.848,-1.216 -17.44,-2.949 -7.388,-2.29 -14.439,-5.67 -21.647,-8.549 -20.3,-8.108 -41.467,-13.102 -62.832,-17.329 -24.8,-4.907 -49.552,-10.113 -74.465,-14.374 -23.146,-3.959 -46.482,-6.803 -69.719,-10.237 -6.478,-0.956 -12.913,-2.205 -19.341,-3.461 -1.254,-0.246 -2.379,-1.156 -4.769,-2.372 6.441,-2.986 11.752,-5.45 17.329,-8.036 -1.852,-1.057 -3.601,-2.054 -5.706,-3.257 -2.93,3.065 -6.133,5.085 -9.768,0.406 -0.674,-0.868 -2.622,-1.062 -3.973,-1.04 -9.155,0.145 -18.191,0.798 -25.075,8.4 -1.691,-3.793 -2.042,-7.287 -8.208,-6.308 -6.055,0.962 -12.652,-1.419 -18.991,-2.46 -0.663,-0.109 -1.187,-1.063 -1.963,-1.804 16.456,-7.825 28.001,-21.061 38.69,-34.403 6.398,-7.986 9.567,-18.944 12.751,-29.02 3.93,-12.44 4.847,-25.661 -2.488,-37.138 -5.426,-8.489 -10.687,-17.924 -21.282,-21.682 -0.826,-0.293 -1.639,-0.943 -2.443,-0.918 -12.573,0.377 -25.462,-0.787 -37.649,1.607 -27.541,5.412 -50.515,19.84 -70.196,39.798 -3.769,3.821 -9.062,6.102 -13.433,9.386 -2.108,1.585 -3.648,3.91 -5.556,5.788 -1.771,1.742 -3.691,3.336 -5.954,5.359 1.167,1.037 2.536,2.256 3.255,2.896 0.107,2.464 0.189,4.348 0.272,6.232 -0.201,-0.474 -0.401,-0.947 -0.601,-1.42 -1.625,2.002 -3.248,4.005 -4.889,6.028 -6.423,-6.175 -11.444,-5.184 -21.611,5.871 2.921,-0.737 6.733,-3.216 5.492,2.938 -6.424,-1.921 -10.658,1.73 -15.137,5.59 -6.387,5.504 -13.235,10.474 -21.025,16.561 0.508,-3.973 0.701,-6.672 1.22,-9.307 1.292,-6.559 2.746,-13.086 4.096,-19.632 0.139,-0.67 0.287,-1.84 -0.02,-2.021 -5.201,-3.088 -1.828,-7.387 -1.342,-11.514 -2.161,0.471 -3.942,0.859 -6,1.307 0.832,1.632 1.555,3.047 2.277,4.464 -0.376,0.29 -0.752,0.581 -1.127,0.872 -1.519,-1.851 -2.996,-3.738 -4.568,-5.542 -1.413,-1.62 -2.931,-3.148 -4.403,-4.716 -2.168,2.135 -5.436,3.905 -6.292,6.478 -2.335,7.021 -3.664,14.378 -5.369,21.606 -1.17,4.963 -2.3,9.937 -3.448,14.905 -0.615,0.098 -1.229,0.195 -1.844,0.292 C 12.641,102.753 7.69,83.374 2.738,63.996 3.179,63.904 3.62,63.813 4.06,63.721 3.659,64.476 3.258,65.23 2.858,65.985 5.949,47.986 4.226,30.031 4.123,12.172 4.064,1.869 5.851,-7.67 9.856,-17.126 c 1.334,-3.15 0.211,-7.342 0.211,-13.337 -6.653,9.789 -12.453,6.429 -17.85,1.461 -7.662,9.446 -11.983,19.253 -9.122,29.76 -0.93,5.388 -2.181,9.582 -2.283,13.804 -0.311,12.894 0.301,25.823 -0.332,38.696 -0.959,19.556 4.314,38.167 7.719,58.607 -3.456,-5.204 -6.157,-9.32 -8.906,-13.403 C -27.934,87.729 -34.579,76.533 -42.6,66.429 -49.771,57.395 -58.058,49.121 -66.613,41.348 c -7.843,-7.127 -16.189,-13.992 -25.25,-19.405 -9.646,-5.764 -20.546,-8.442 -32.053,-4.927 -1.758,0.536 -3.787,0.452 -5.662,0.299 -12.92,-1.056 -22.401,6.057 -31.422,13.656 -4.052,3.414 -2.936,9.016 -2.999,13.821 -0.037,2.858 0.424,5.726 0.77,9.9 4.333,2.841 6.049,4.708 -4.77,13.195 3.41,6.565 6.6,13.529 10.552,20.03 2.633,4.328 7.391,7.539 9.368,12.052 3.928,8.962 11.898,13.869 18.185,20.443 3.855,4.029 8.043,7.775 12.361,11.309 1.8,1.47 4.325,2.056 6.52,3.045 0.633,-1.774 1.22,-3.568 1.938,-5.306 0.149,-0.36 0.793,-0.515 1.476,-0.924 0,1.91 -0.207,3.577 0.059,5.164 0.259,1.552 1.001,3.023 1.531,4.529 1.245,-0.706 2.49,-1.41 3.91,-2.214 2.451,-0.352 -1.362,7.621 4.066,4.017 0.863,1.282 1.867,2.778 3.173,4.719 -0.763,0.246 -2.577,0.829 -4.5,1.448 0.531,3.467 1.095,7.141 1.776,11.582 -1.515,-1.642 -2.687,-2.915 -3.574,-3.876 -1.942,2.24 -4.008,4.29 -5.663,6.63 -1.512,2.139 -2.838,3.122 -5.038,0.959 -0.305,-0.302 -1.111,-0.469 -1.471,-0.283 -10.311,5.32 -22.091,2.396 -32.761,5.792 -1.058,0.337 -2.814,-0.55 -3.858,-1.365 -1.636,-1.278 -2.942,-2.978 -4.407,-4.522 -2.404,3.004 -2.404,3.004 1.85,6.28 -4.115,0.449 -7.566,0.827 -10.805,1.178 -0.276,-2.383 -0.504,-4.336 -0.731,-6.288 -1.655,3.996 -4.54,4.897 -9.152,2.955 -3.682,-1.548 -6.647,-1.528 -10.876,0.753 -7.419,4 -13.911,10.695 -23.249,10.539 -1.632,-0.027 -3.258,-0.428 -4.887,-0.656 0.583,-1.259 1.29,-2.48 1.706,-3.792 0.29,-0.915 0.581,-2.245 0.137,-2.862 -0.448,-0.621 -1.912,-1.002 -2.74,-0.779 -4.522,1.223 -9.121,2.337 -13.428,4.127 -3.877,1.613 -7.227,4.562 -11.152,5.964 -3.385,1.211 -7.289,0.891 -10.891,1.609 -1.83,0.365 -3.503,1.526 -5.076,3.336 -2.648,-0.177 -5.295,-0.357 -8.807,-0.593 -0.246,0.422 -1.083,1.856 -2.12,3.634 -8.59,-5.83 -15.367,-0.693 -23.176,2.749 -5.191,2.288 -9.636,7.119 -16.527,6.299 -2.949,-0.35 -6.287,2.661 -9.467,4.104 -0.937,0.427 -1.928,0.742 -2.911,1.056 -6.123,1.961 -12.29,3.797 -18.341,5.959 -1.047,0.374 -1.707,2.05 -2.368,3.224 -0.773,1.372 -1.35,2.855 -3.248,3.956 -0.099,-1.386 -0.198,-2.772 -0.343,-4.805 -2.387,1.245 -4.484,2.403 -6.639,3.441 -1.985,0.957 -4.16,1.583 -6.005,2.745 -1.169,0.737 -1.886,2.189 -2.665,3.147 -7.096,-2.32 -7.116,-2.309 -9.674,5.206 -2.924,-4.874 -6.461,-3.336 -10.331,-1.647 -6.974,3.045 -14.147,5.631 -21.149,8.616 -3.261,1.391 -7.285,1.915 -8.119,6.675 -0.171,0.981 -2.516,1.725 -3.966,2.315 -9.18,3.726 -18.834,6.559 -27.478,11.259 -11.294,6.14 -22.295,13.076 -32.551,20.821 -48.267,36.458 -95.121,74.576 -138.358,117.053 -19.323,18.983 -40.478,36.092 -60.044,54.841 -7.149,6.852 -12.562,15.701 -17.965,24.152 -11.536,18.041 -22.577,36.4 -33.737,54.68 -1.257,2.059 -1.978,4.445 -2.909,6.59 8.224,5.526 9.617,9.734 6.139,19.039 -1.609,4.305 -3.866,8.363 -5.639,12.613 -1.9,4.552 -3.852,9.072 -2.393,14.319 0.4,1.436 -0.163,3.964 -1.231,4.846 -5.937,4.914 -7.797,11.816 -9.232,18.718 -5.772,27.751 -11.336,55.548 -16.713,83.379 -0.584,3.024 1.151,6.46 0.734,9.561 -0.671,4.985 -2.943,9.801 -3.296,14.776 -1.027,14.472 -1.461,28.985 -2.076,43.483 -0.29,6.86 -0.537,13.724 -0.67,20.588 -0.279,14.203 2.569,27.955 5.195,41.854 2.418,12.806 2.438,26.054 3.739,39.084 1.883,18.865 3.722,37.74 6.127,56.541 0.658,5.15 3.215,10.07 5.007,15.056 0.888,2.472 2.479,4.772 2.936,7.298 0.757,4.191 3.005,7.039 5.639,10.297 3.069,3.795 4.581,9.037 6.096,13.862 4.183,13.318 8.318,26.669 11.725,40.195 0.669,2.656 3.664,6.565 -0.437,9.604 -0.33,0.245 0.615,2.196 0.954,3.359 4.657,16.002 9.312,32.006 14.166,48.692 -2.447,-0.179 -3.904,-0.285 -5.808,-0.424 1.458,2.32 2.686,4.403 4.051,6.392 0.69,1.004 2.412,1.913 2.334,2.737 -0.922,9.677 8.337,14.204 11.119,22.241 2.692,7.773 8.687,14.373 13.019,21.616 2.255,3.77 4.483,7.665 5.893,11.788 0.838,2.453 0.838,5.77 -0.126,8.156 -3.033,7.499 -6.192,15.038 -10.275,21.991 -3.541,6.032 -8.532,11.196 -12.636,16.92 -2.227,3.106 -4.524,6.37 -5.794,9.918 -7.437,20.774 -14.741,41.599 -21.762,62.517 -4.384,13.062 -8.42,26.255 -12.096,39.532 -0.921,3.325 0.303,7.205 0.233,10.824 -0.031,1.594 -0.833,3.174 -1.429,5.265 0.221,0.085 1.259,0.482 3.386,1.296 -2.48,1.269 -4.262,2.181 -6.984,3.573 2.042,0.654 3.061,0.98 4.474,1.432 -0.874,1.356 -1.59,2.466 -2.815,4.365 1.638,-0.438 2.535,-0.678 3.864,-1.034 0.275,4.064 0.544,8.051 0.869,12.868 4.408,-1.632 8.879,-2.767 12.737,-4.974 1.529,-0.875 2.074,-4.074 2.414,-6.314 1.346,-8.867 2.547,-17.761 3.52,-26.675 0.193,-1.76 -0.857,-3.656 -1.219,-5.046 1.203,-1.373 3.327,-2.786 3.961,-4.694 2.817,-8.479 4.987,-17.173 7.824,-25.644 2.256,-6.738 5.138,-13.267 7.746,-19.888 4.068,-10.325 8.282,-20.595 12.171,-30.988 4.515,-12.065 8.551,-24.313 13.181,-36.332 2.383,-6.186 5.134,-12.177 9.055,-17.773 2.656,-3.79 2.559,-9.406 4.239,-14.006 2.919,-7.993 1.059,-14.107 -5.68,-19.344 -2.998,-2.33 -5.073,-5.849 -7.858,-9.174 4.335,-3.538 2.321,-6.315 -0.691,-9.081 -16.46,-15.112 -22.182,-35.428 -26.711,-56.418 1.751,2.565 3.437,5.176 5.275,7.676 1.038,1.411 2.194,3.54 3.533,3.735 1.957,0.286 4.126,-0.873 6.205,-1.417 -0.879,-1.412 -1.456,-3.628 -2.692,-4.092 -4.414,-1.662 -6.351,-3.948 -4.585,-8.84 0.483,-1.341 -0.522,-3.379 -1.191,-4.949 -3.523,-8.285 -7.784,-16.317 -10.572,-24.836 -2.609,-7.97 -3.99,-16.389 -5.4,-24.696 -4.141,-24.405 -7.973,-48.862 -12.131,-73.263 -0.302,-1.777 -1.991,-3.593 -3.496,-4.828 -2.614,-2.142 -3.092,-4.28 -1.872,-7.429 0.818,-2.115 1.294,-4.745 0.826,-6.908 -2.001,-9.251 -4.797,-18.342 -6.561,-27.632 -1.752,-9.229 -2.123,-18.73 -4.055,-27.911 -1.162,-5.524 1.982,-9.305 3.213,-13.87 0.511,-1.895 1.351,-4.082 0.867,-5.807 -4.473,-15.945 -3.993,-32.234 -3.896,-48.528 0.063,-10.775 0.027,-21.565 -0.524,-32.319 -0.153,-2.959 -2.319,-5.815 -3.638,-8.896 -0.81,0.692 -1.57,1.343 -1.338,1.144 -2.345,-0.734 -4.011,-1.255 -6.797,-2.127 0.299,-4.354 0.679,-9.88 1.059,-15.407 0.643,-0.028 1.285,-0.057 1.928,-0.085 0.456,1.151 0.721,2.432 1.405,3.426 1.686,2.449 4.342,3.891 7.002,2.77 1.456,-0.612 2.662,-3.16 2.945,-4.995 1.642,-10.648 2.91,-21.354 4.43,-32.023 2.118,-14.858 4.508,-29.679 6.455,-44.558 0.905,-6.91 3.419,-14.909 1.022,-20.678 -4.797,-11.544 -1.024,-21.131 2.704,-31.213 2.013,-5.443 4.353,-10.783 6.9,-15.996 0.684,-1.402 2.674,-3.064 4.05,-3.052 3.463,0.03 4.99,-1.745 6.463,-4.421 14.209,-25.798 30.874,-49.91 49.703,-72.56 1.496,-1.8 1.158,-5.017 2.391,-7.162 2.288,-3.981 4.861,-7.857 7.745,-11.43 16.806,-20.812 33.367,-41.843 52.841,-60.33 2.132,-2.025 3.69,-4.656 6.231,-7.928 -3.373,0.705 -5.827,1.218 -8.282,1.733 -0.348,-0.562 -0.695,-1.124 -1.042,-1.685 9.839,-8.586 19.224,-17.774 29.618,-25.627 18.282,-13.812 37.157,-26.842 55.833,-40.131 7.219,-5.136 14.747,-9.852 21.834,-15.161 17.244,-12.914 35.868,-23.441 55.191,-32.841 18.441,-8.972 36.767,-18.184 55.261,-27.045 9.419,-4.515 18.865,-9.191 28.742,-12.449 5.926,-1.956 12.711,-1.278 19.101,-1.873 2.449,-0.228 4.953,-0.433 7.297,-1.111 21.099,-6.098 42.113,-12.495 63.268,-18.389 10.714,-2.985 21.938,-4.301 32.45,-7.814 16.961,-5.67 35.173,-4.726 51.865,-9.751 22.734,-6.844 45.984,-4.961 68.866,-8.029 13.85,-1.858 27.847,-2.669 41.793,-3.76 16.94,-1.323 33.928,-2.128 50.829,-3.815 6.481,-0.647 12.77,-3.149 19.167,-4.719 2.034,-0.5 4.134,-1.017 6.206,-1.024 33.875,-0.113 67.762,-0.712 101.622,-0.023 28.49,0.581 57.009,1.957 85.406,4.305 30.978,2.561 61.818,6.757 92.743,10.007 11.436,1.202 22.991,1.34 34.403,2.702 9.813,1.171 19.57,3.08 29.226,5.227 13.074,2.908 26.053,6.253 39.027,9.594 32.058,8.255 64.168,16.334 96.094,25.076 11.892,3.257 23.285,8.305 34.993,12.278 15.66,5.315 30.307,12.606 44.238,21.482 9.963,6.347 20.506,11.839 30.121,18.655 8.691,6.162 16.61,13.45 24.631,20.512 19.075,16.793 38.398,33.334 56.856,50.786 11.357,10.736 22.843,21.401 31.011,35.322 16.96,28.909 37.943,55.364 52.379,85.858 6.569,13.876 12.645,28.21 21.113,40.888 6.756,10.116 7.246,21.888 12.504,32.301 5.207,10.312 7.936,21.94 11.2,33.15 3.314,11.385 6.268,22.899 8.799,34.483 2.494,11.422 4.781,22.938 6.215,34.53 1.803,14.575 2.321,29.309 4.054,43.895 0.788,6.639 3.156,13.092 4.91,20.029 -4.759,2.909 -3.291,8.832 -2.893,13.912 0.698,8.891 2.363,17.704 3.539,26.561 0.751,5.662 0.483,10.896 -2.482,16.349 -2.139,3.935 -1.839,9.218 -2.523,13.915 -1.78,12.235 -3.65,24.46 -5.211,36.724 -2.413,18.949 -3.994,38.025 -7.033,56.869 -3.848,23.861 -11.094,46.888 -19.476,69.554 -3.804,10.286 -7.342,20.68 -10.661,31.132 -1.185,3.733 -2.472,7.707 1.669,11.228 1.043,0.887 -0.495,4.532 -0.4,6.891 0.089,2.175 0.781,4.324 1.206,6.484 1.573,-1.554 3.948,-2.835 4.587,-4.709 3.756,-11.014 6.957,-22.217 10.675,-33.245 1.389,-4.121 3.962,-7.832 5.482,-11.921 3.094,-8.327 5.646,-16.857 8.794,-25.162 2.473,-6.522 5.568,-12.806 8.257,-19.249 0.882,-2.112 1.763,-4.367 1.9,-6.602 0.118,-1.911 -0.195,-4.558 -1.417,-5.72 -5.222,-4.958 -5.536,-5.952 -1.753,-12.983" /></g><g
           transform="translate(1136.7129,1583.1221)"
           id="g3744"><path
             id="path3746"
             style="fill:#000000;fill-opacity:1;fill-rule:evenodd;stroke:none"
             d="m 0,0 c 0.457,0.333 0.915,0.667 1.372,1.001 -6.927,18.646 -17.437,35.46 -27.302,52.667 -0.753,-1.581 -1.447,-3.2 -0.934,-4.207 C -18.675,33.365 -10.343,17.341 -1.978,1.335 -1.653,0.715 -0.675,0.437 0,0 m 349.895,-41.121 c -5.739,-5.394 -4.41,-8.769 -0.205,-12.164 2.095,-1.691 3.503,-4.234 6.381,-7.847 -5.352,-0.239 -9.145,-0.834 -12.847,-0.48 -6.492,0.622 -12.897,2.266 -19.391,2.71 -30.21,2.064 -59.576,8.196 -88.496,17.032 -5.192,1.587 -11.124,0.754 -15.257,0.964 -2.123,2.251 -3.094,4.23 -4.461,4.561 -5.149,1.246 -10.394,2.398 -15.662,2.784 -19.061,1.398 -38.139,2.608 -57.223,3.636 -33.946,1.828 -67.886,4.014 -101.86,5.027 -29.416,0.877 -58.876,0.426 -88.315,0.369 -10.449,-0.021 -20.905,-0.44 -31.343,-0.974 -19.777,-1.013 -39.21,2.056 -58.733,4.362 -8.957,1.058 -18.015,1.488 -27.039,1.692 -33.325,0.752 -66.655,1.633 -99.986,1.787 -21.792,0.1 -43.59,-1.015 -65.387,-1.501 -19.313,-0.43 -38.641,-0.411 -57.939,-1.187 -27.765,-1.114 -55.528,-2.479 -83.256,-4.278 -26.276,-1.705 -52.482,-5.198 -78.767,-5.792 -15.656,-0.355 -30.37,-3.671 -45.346,-6.934 -7.797,-1.7 -15.794,-2.466 -23.617,-4.068 -3.518,-0.722 -6.741,-2.985 -10.261,-3.573 -3.165,-0.527 -6.553,0.281 -9.854,0.5 -0.11,1.764 -0.196,3.152 -0.286,4.615 -0.779,-0.115 -1.333,-0.057 -1.418,-0.229 -1.28,-2.607 -1.934,-5.058 1.887,-6.129 0.292,-0.082 0.501,-0.464 1.174,-1.121 -3.303,-1.339 -6.372,-2.582 -9.841,-3.989 -1.231,3.863 -2.952,6.239 -7.147,3.052 1.329,-1.191 2.481,-2.224 3.633,-3.256 -0.126,-0.444 -0.252,-0.887 -0.378,-1.331 -2.169,0.404 -5.05,0.071 -6.375,1.35 -3.961,3.822 -3.601,8.881 -1.782,14.043 0.441,-1.656 0.881,-3.311 1.663,-6.245 0.968,3.653 1.401,6.201 2.346,8.541 0.651,1.611 2.014,2.935 3.058,4.388 1.329,-1.288 2.658,-2.575 4.896,-4.746 2.091,2.734 4.422,5.783 6.753,8.832 -0.388,0.31 -0.776,0.62 -1.164,0.93 3.764,1.398 7.529,2.796 12.256,4.55 -30.693,17.393 -60.461,34.262 -91.307,51.741 2.61,-0.39 4.386,-0.413 6.002,-0.935 13.278,-4.289 26.451,-8.921 39.811,-12.933 8.576,-2.575 17.608,-3.707 26.071,-6.567 5.947,-2.008 11.35,-5.714 16.868,-8.886 5.493,-3.158 10.649,-6.937 16.271,-9.826 7.925,-4.073 15.808,-6.294 25.08,-2.316 6.663,2.858 14.428,3.386 21.782,4.306 4.527,0.567 7.072,1.427 3.56,7.579 11.123,0 21.41,0.574 31.611,-0.127 17.776,-1.22 35.478,-3.49 53.248,-4.817 14.283,-1.067 28.622,-1.388 42.936,-2.046 2.665,-0.122 5.815,0.958 6.779,-3.177 0.139,-0.596 2.122,-1.04 3.269,-1.084 24.403,-0.913 48.808,-1.799 73.216,-2.571 3.258,-0.103 6.593,-0.336 8.586,3.636 1.869,3.722 -2.479,5.393 -2.84,5.381 -5.623,-0.199 -2.714,3.767 -3.958,7.102 3.118,-1.675 5.166,-2.776 7.483,-4.021 0.814,1.7 1.551,3.239 2.42,5.052 5.747,0 11.584,0.028 17.42,-0.03 0.827,-0.009 2,-0.164 2.424,-0.709 6.913,-8.876 17.248,-4.632 25.924,-6.638 0.405,-0.093 2.015,2.705 2.164,4.244 0.54,5.585 0.709,11.206 0.993,16.815 0.366,7.206 3.305,14.3 -0.472,21.684 -1.202,2.349 -2.18,7.481 4.301,7.725 -4.603,1.46 -7.432,3.651 -7.342,8.533 0.114,6.162 1.953,11.521 5.432,16.055 -0.221,2.527 -0.652,5.14 -0.642,7.751 0.043,12.247 3.682,23.527 8.385,34.774 3.726,8.905 5.638,18.562 8.465,27.852 4.061,13.344 11.644,24.884 19.206,36.367 4.063,6.17 8.822,11.893 13.445,17.677 1.151,1.44 2.99,2.331 4.996,3.836 0.619,6.938 6.556,11.209 11.189,16.325 1.928,2.128 3.796,4.356 5.993,6.173 1.167,0.965 2.982,1.148 4.695,1.751 -1.38,4.852 2.769,7.159 5.76,9.752 1.792,1.555 4.641,1.825 6.803,3.047 1.081,0.61 1.741,2.024 2.497,3.139 1.998,2.946 3.3,6.869 6.023,8.732 12.217,8.367 24.888,16.104 39.803,18.764 4.177,0.744 8.509,0.615 13.664,0.944 2.638,4.63 8.54,6.631 14.232,7.377 8.698,1.141 17.585,0.919 26.394,1.099 7.923,0.161 15.869,0.407 23.773,0.003 5.772,-0.295 11.508,-1.501 17.232,-2.461 4.69,-0.787 9.346,-1.784 14.005,-2.743 1.556,-0.319 3.205,-0.555 4.596,-1.258 14.649,-7.415 29.835,-13.988 43.7,-22.666 12.837,-8.034 25.702,-16.994 35.921,-27.992 13.41,-14.433 28.256,-28.064 35.983,-47.299 4.042,-10.059 10.992,-18.937 16.49,-28.427 3.073,-5.304 2.619,-9.588 -1.921,-12.619 -3.557,-2.374 -7.163,-1.022 -10.731,1.435 -17.588,12.113 -36.885,20.766 -56.761,28.497 -13.175,5.126 -26.477,8.343 -40.515,8.831 -4.978,0.173 -6.264,4.534 -7.328,7.727 -1.23,3.689 2.385,5.829 5.613,5.778 7.013,-0.11 14.219,-0.097 20.968,-1.711 10.224,-2.447 20.161,-6.138 30.134,-9.55 1.631,-0.559 2.824,-2.4 4.301,-3.722 9.777,-3.036 19.938,-6.193 30.361,-9.43 -2.314,4.687 -4.443,10.372 -7.708,15.302 -5.239,7.906 -10.807,15.68 -17.021,22.827 -6.34,7.289 -13.338,14.082 -20.578,20.491 -8.022,7.1 -16.441,13.802 -25.106,20.101 -3.75,2.725 -8.709,3.719 -12.845,5.997 -15.734,8.667 -32.116,15.215 -50.051,17.882 -19.223,2.858 -38.593,4.012 -57.422,-0.461 -17.686,-4.201 -35.438,-8.692 -51.967,-17.226 -5.279,-2.725 -11.007,-4.863 -15.167,-8.953 -5.389,-5.299 -9.669,-11.71 -14.617,-17.479 -5.741,-6.693 -11.826,-13.093 -17.489,-19.849 -2.831,-3.377 -6.182,-6.849 -2.214,-11.977 0.898,-1.16 0.223,-4.759 -0.983,-6.137 -12.855,-14.687 -19.465,-32.528 -25.668,-50.511 -4.107,-11.908 -7.44,-24.084 -11.103,-36.086 -2.878,0.784 -5.463,1.487 -8.625,2.349 -0.506,-1.573 -1.218,-3.783 -1.932,-6.003 5.978,-1.771 8.746,-5.913 7.595,-11.462 -2.956,-14.241 -6.282,-28.408 -9.075,-42.68 -1.848,-9.432 -3.047,-18.991 -4.483,-28.501 -0.126,-0.831 -0.18,-2.184 0.286,-2.514 3.948,-2.796 5.863,-8.337 11.579,-8.72 2.475,-0.165 4.958,-0.287 7.438,-0.291 14.712,-0.024 29.426,0.171 44.135,-0.039 40.762,-0.579 81.52,-1.561 122.283,-1.841 11.095,-0.075 22.715,0.06 33.169,3.189 12.114,3.627 23.989,2.255 35.982,2.855 2.986,0.149 5.985,0.022 9.785,0.022 -2.635,5.893 -5.078,11.113 -7.314,16.418 -3.127,7.421 -5.829,15.032 -9.2,22.337 -5.538,12 -11.553,23.779 -17.182,35.738 -1.795,3.812 -3.082,7.872 -4.472,11.864 -1.651,4.738 1.445,6.831 5.161,7.184 5.616,0.533 11.331,0.319 16.978,-0.009 1.148,-0.067 2.484,-1.878 3.21,-3.178 1.429,-2.562 2.296,-5.441 3.741,-7.992 C -16.794,65.875 -7.361,49.484 1.99,33.047 4.966,27.815 8.128,22.653 10.61,17.189 12.832,12.297 14.236,7.034 16.281,1.124 c 7.34,-0.959 15.865,-2.494 24.457,-3.09 10.778,-0.749 21.61,-0.987 32.416,-0.991 37.077,-0.011 73.859,-3.086 110.519,-8.732 10.867,-1.674 22.206,-0.181 33.326,-0.344 8.072,-0.118 16.14,-0.758 24.209,-0.728 1.687,0.006 4.875,2.048 4.806,2.951 -0.49,6.282 4.031,7.765 8.317,9.132 7.044,2.248 14.21,4.142 21.4,5.871 1.19,0.286 2.908,-0.825 4.12,-1.667 1.094,-0.76 1.832,-2.036 3.666,-2.479 -0.237,1.855 -0.472,3.709 -0.824,6.472 6.552,1.22 13.018,2.757 19.574,3.584 21.19,2.672 42.387,5.342 63.635,7.486 10.854,1.096 21.838,1.675 32.666,-0.846 0.501,-0.117 1.258,-0.41 1.496,-0.189 6.839,6.316 15.342,4.089 23.233,4.32 13.606,0.397 27.23,0.395 40.845,0.247 17.166,-0.186 34.403,0.177 51.467,-1.318 14.323,-1.255 28.472,-4.678 42.635,-7.463 6.001,-1.179 11.828,-3.226 17.756,-4.794 4.597,-1.216 8.689,-2.989 10.761,-7.753 0.366,-0.841 1.35,-1.677 2.233,-1.987 6.818,-2.393 13.621,-4.853 20.544,-6.909 8.314,-2.468 17.202,-3.528 25.016,-7.039 13.467,-6.051 26.516,-13.142 39.307,-20.547 7.431,-4.301 7.068,-9.904 0.318,-15.465 -0.923,-0.76 -1.521,-2.276 -1.697,-3.523 -1.347,-9.541 -0.613,-19.263 -4.411,-28.624 -1.951,-4.806 -1.305,-10.712 -1.562,-16.134 -0.077,-1.628 0.287,-3.683 1.261,-4.882 4.195,-5.167 2.986,-10.188 1.607,-16.21 -4.679,-20.454 -18.081,-36.536 -26.463,-55.109 -9.239,-20.474 -19.732,-40.385 -29.753,-60.504 -2.91,-5.841 -6.206,-11.146 -11.67,-15.432 -3.878,-3.042 -5.821,-8.581 -8.551,-13.053 -5.67,-9.291 -11.292,-18.615 -17.83,-27.631 -2.122,5.964 -4.381,11.735 -1.64,17.429 6.973,14.495 14.292,28.826 21.643,43.135 1.166,2.268 3.241,4.062 4.851,6.109 0.932,1.185 2.006,2.334 2.616,3.68 2.636,5.825 4.835,11.864 7.73,17.552 5.509,10.83 12.077,21.17 16.95,32.265 7.427,16.91 12.63,34.65 16.75,52.678 2.405,10.522 4.096,21.295 7.537,31.471 3.82,11.298 2.351,22.859 3.776,34.236 0.427,3.409 -0.997,5.57 -4.534,6.661 -11.501,3.55 -22.934,7.321 -34.375,11.062 -1.674,0.547 -3.204,1.537 -4.881,2.069 -4.729,1.504 -7.346,3.717 -4.588,9.189 0.504,1.001 -1.098,4.286 -2.374,4.754 -5.979,2.188 -12.115,4.064 -18.325,5.475 -7.597,1.726 -15.277,3.273 -23.006,4.199 -19.671,2.356 -39.379,4.426 -59.094,6.39 -6.652,0.662 -12.657,1.52 -14.636,9.48 -0.309,1.238 -3.101,2.594 -4.78,2.64 -10.762,0.29 -21.542,0.48 -32.304,0.229 C 434.387,8.028 416.344,6.554 398.323,6.826 380.22,7.099 362.578,3.7 344.725,2.078 333.811,1.086 322.979,-1.539 312.077,-1.765 c -17.321,-0.36 -33.223,-6.44 -49.623,-10.513 -4.339,-1.078 -8.287,-3.729 -13.507,-6.167 34.064,-7.24 67.641,-11.023 100.948,-22.676" /></g><g
           transform="translate(1354.3867,1307.9463)"
           id="g3748"><path
             id="path3750"
             style="fill:#000000;fill-opacity:1;fill-rule:evenodd;stroke:none"
             d="m 0,0 c -0.756,-1.522 -1.481,-2.98 -2.206,-4.437 0.229,-0.2 0.458,-0.398 0.688,-0.598 0.692,0.527 1.429,1.005 2.071,1.588 2.955,2.69 5.792,3.829 10.326,3.075 12.81,-2.129 25.828,-2.964 38.709,-4.715 13.029,-1.771 25.961,-4.249 38.99,-5.999 11.137,-1.497 22.341,-2.549 33.54,-3.503 4.991,-0.425 8.845,-5.534 7.543,-10.835 -0.123,-0.503 -0.698,-0.98 -0.653,-1.428 0.543,-5.467 1.232,-10.322 -6.928,-11.063 -5.244,-0.477 -9.635,-1.378 -14.943,1.264 -4.155,2.066 -9.933,0.732 -14.953,1.247 -2.377,0.244 -4.672,1.277 -7.261,1.5 -4.629,1.554 -9.259,3.108 -14.489,4.863 0.729,0.895 1.268,1.555 2.25,2.756 -1.625,0 -3.764,0.383 -3.95,-0.057 -3.128,-7.405 -10.057,-3.939 -14.133,-3.51 -22.848,2.406 -45.538,6.263 -68.332,9.239 -9.609,1.255 -19.343,1.532 -29.014,2.315 -6.035,0.489 -12.062,1.093 -18.848,1.714 0.479,-2.747 0.722,-4.077 0.941,-5.411 1.591,-9.734 4.093,-19.424 4.561,-29.213 0.753,-15.746 0.635,-31.578 -0.073,-47.331 -0.326,-7.268 -3.013,-14.415 -4.436,-21.655 -0.744,-3.789 -1.398,-7.666 -1.342,-11.493 0.013,-0.906 2.993,-2.401 4.703,-2.55 12.17,-1.064 24.43,-1.326 36.536,-2.851 16.141,-2.034 32.138,-5.188 48.256,-7.436 6.642,-0.926 13.435,-0.804 20.164,-1.062 10.034,-0.388 10.652,-0.844 13.683,-11.751 -2.707,-0.468 -5.334,-1.308 -7.964,-1.32 -45.923,-0.212 -91.85,-0.092 -137.771,-0.53 -34.376,-0.329 -68.745,-1.373 -103.118,-2.03 -5.138,-0.098 -10.285,0.081 -15.421,0.296 -6.074,0.254 -8.685,3.379 -9.159,9.325 -0.768,9.617 4.792,14.491 13.628,15.263 35.444,3.098 70.881,6.722 106.564,4.476 1.627,-0.103 3.347,1.272 5.024,1.958 -1.204,1.914 -1.956,4.722 -3.686,5.592 -9.285,4.679 -15.556,15.402 -15.176,25.834 0.38,10.45 -0.242,20.945 0.34,31.377 0.837,15.012 2.318,29.989 3.648,44.971 0.199,2.234 1.072,4.409 1.779,7.187 -2.69,0.832 -5.276,1.969 -7.977,2.411 -16.071,2.631 -32.182,5.022 -48.254,7.66 -7.479,1.227 -15.034,2.358 -22.289,4.453 -3.779,1.092 -6.955,4.227 -10.455,6.356 -2.182,1.328 -4.321,3.021 -6.717,3.651 -9.364,2.46 -9.633,10.446 -11.268,17.684 -0.11,0.485 -0.514,0.904 -1.029,1.771 -1.01,-1.162 -1.9,-2.185 -2.916,-3.353 -1.307,3.159 0.921,8.208 3.444,8.745 6.444,1.372 12.133,-0.57 17.957,-3.225 9.23,-4.21 18.543,-8.472 28.217,-11.405 7.276,-2.207 15.184,-2.305 22.795,-3.453 10.013,-1.511 20.357,-2.045 29.893,-5.087 6.365,-2.03 12.536,-0.614 18.754,-2.117 C -83.241,7.58 -76.213,8.115 -69.407,7.76 -62.521,7.4 -55.617,7.274 -48.75,6.696 -37.713,5.767 -26.443,5.608 -15.79,3 -10.595,1.728 -4.843,3.453 0,0" /></g><g
           transform="translate(896.9756,806.3545)"
           id="g3752"><path
             id="path3754"
             style="fill:#000000;fill-opacity:1;fill-rule:evenodd;stroke:none"
             d="m 0,0 c -3.215,-2.089 -6.289,-4.449 -9.68,-6.196 -3.773,-1.945 -7.868,-3.256 -11.764,-4.977 -7.34,-3.244 -14.775,-6.314 -21.901,-9.981 -4.411,-2.271 -8.251,-5.626 -12.474,-8.292 -11.64,-7.348 -23.244,-14.762 -35.071,-21.8 -5.87,-3.493 -12.177,-6.259 -18.337,-9.249 -0.899,-0.437 -2.276,-0.715 -3.104,-0.34 -5.822,2.635 -9.53,-1.184 -13.578,-4.153 -1.711,-1.256 -3.45,-2.562 -5.363,-3.438 -5.212,-2.387 -6.955,-1.53 -8.468,2.656 -2.816,0.872 -5.138,0.998 -6.612,2.18 -2.35,1.888 -5.351,3.818 -3.992,7.846 2.202,6.531 6.203,11.33 12.028,15.229 20.56,13.763 40.894,27.865 61.214,41.98 3.174,2.204 5.684,5.344 8.763,7.707 4.608,3.537 9.241,7.128 14.245,10.04 6.398,3.725 13.096,6.971 19.821,10.087 3.798,1.759 7.94,4.075 11.873,3.977 8.696,-0.215 15.576,4.029 23.084,7.051 6.208,2.498 12.69,5.085 19.238,5.731 5.781,0.57 11.584,-1.746 15.543,-7.088 1.088,-1.469 3.476,-2.185 5.411,-2.771 3.329,-1.007 6.868,-1.356 10.145,-2.485 8.926,-3.077 17.964,-5.958 26.583,-9.765 11.87,-5.241 23.401,-11.248 35.065,-16.951 8.321,-4.07 16.727,-7.981 24.903,-12.325 10.232,-5.437 20.096,-11.581 30.439,-16.784 8.7,-4.378 17.176,-8.668 23.654,-16.345 5.057,-5.994 7.611,-18.348 4.33,-25.418 -2.87,-6.185 -12.267,-7.842 -19.033,-3.774 -11.411,6.862 -22.989,13.446 -34.529,20.092 -1.516,0.873 -3.2,1.974 -4.838,2.032 -11.425,0.402 -19.74,8.047 -29.493,12.321 -8.739,3.83 -17.439,7.837 -26.431,10.977 C 62.973,-15.695 44.095,-9.681 25.285,-3.47 21.92,-2.358 18.593,-0.965 15.133,-0.35 11.596,0.278 7.913,0.061 4.3,0.316 2.699,0.43 1.116,0.799 -0.476,1.051 -0.317,0.701 -0.159,0.351 0,0" /></g><g
           transform="translate(702.6611,1279.8838)"
           id="g3756"><path
             id="path3758"
             style="fill:#000000;fill-opacity:1;fill-rule:evenodd;stroke:none"
             d="m 0,0 c -1.076,-16.86 -2.275,-32.545 -3.016,-48.251 -0.601,-12.737 -0.609,-25.5 -0.96,-38.25 -0.207,-7.522 -1.71,-14.536 -5.848,-21.19 -4.206,-6.763 -14.721,-8.77 -21.428,-4.101 -11.167,7.772 -14.924,19.648 -15.643,32.313 -0.974,17.156 -0.927,34.371 -1.243,51.562 -0.117,6.342 -0.019,12.688 -0.019,19.342 -17.709,-2.859 -34.389,-5.907 -51.176,-8.162 -16.505,-2.217 -32.702,-7.572 -50.192,-6.471 -1.939,-6.416 -8.79,-3.563 -13.793,-4.596 -2.859,-0.59 -6.099,0.704 -9.175,1.09 -0.617,0.078 -1.534,0.135 -1.863,-0.218 -5.21,-5.572 -12.509,-4.167 -18.886,-5.379 -6.703,-1.274 -13.67,-1.191 -20.529,-1.594 -1.931,-0.114 -3.937,-0.097 -5.82,0.288 -6.426,1.314 -7.396,3.021 -4.848,9.11 2.134,5.099 -1.973,4.373 -4.506,5.375 -3.674,1.454 -7.638,2.598 -10.761,4.861 -1.977,1.433 -3.019,4.562 -3.733,7.136 -0.3,1.08 1.379,3.903 2.08,3.876 5.617,-0.216 5.839,4.321 6.642,7.669 1.376,5.744 6.355,5.178 10.015,5.841 6.917,1.253 14.029,1.692 21.073,1.851 2.82,0.063 5.686,-1.48 8.515,-2.346 2.458,-0.752 4.852,-1.747 7.344,-2.345 16.604,-3.983 33.441,-2.825 50.251,-2.151 16.237,0.652 32.47,1.463 48.712,1.899 5.981,0.161 11.983,-0.74 17.98,-0.817 10.145,-0.131 19.979,1.484 29.61,4.965 6.937,2.507 14.285,3.853 21.363,6.005 6.988,2.123 13.77,4.961 20.811,6.856 12.912,3.476 25.824,7.308 38.991,9.316 5.731,0.874 10.809,2.363 15.925,4.629 7.853,3.478 15.52,7.655 23.704,10.029 7.842,2.275 9.425,2.174 11.615,-4.765 -1.196,-0.234 -2.339,-0.459 -3.484,-0.683 -0.022,-0.273 -0.044,-0.546 -0.066,-0.818 2.632,-0.51 5.265,-1.02 7.897,-1.53 -0.123,-0.627 -0.246,-1.254 -0.369,-1.881 H 90.2 C 90.896,35.734 91.578,33.062 91.961,31.56 89.938,29.471 88.75,27.671 87.085,26.648 83.858,24.666 80.458,22.892 76.963,21.431 53.421,11.589 28.954,5.03 3.77,1.053 2.068,0.784 0.427,0.123 0,0" /></g><g
           transform="translate(767.9902,1107.7788)"
           id="g3760"><path
             id="path3762"
             style="fill:#000000;fill-opacity:1;fill-rule:evenodd;stroke:none"
             d="m 0,0 c 1.074,-4.489 3.309,-9.311 3.106,-14.029 -0.311,-7.224 -4.676,-10.728 -11.939,-10.749 -35.82,-0.103 -71.64,-0.036 -107.459,-0.02 -18.088,0.008 -36.187,-0.355 -54.26,0.16 -19.237,0.548 -38.587,0.9 -57.615,3.403 -9.211,1.212 -18.453,2.182 -27.666,3.381 -3.335,0.433 -6.551,2.894 -9.447,4.956 -0.986,0.701 -1.136,3.02 -1.108,4.589 0.035,1.89 1.157,3.828 0.936,5.64 -0.427,3.512 1.362,3.633 4.026,5.367 12.949,8.425 27.246,1.718 40.463,4.937 0.769,0.187 1.486,0.666 2.172,1.099 1.186,0.749 2.272,2.147 3.498,2.265 9.229,0.89 18.479,2.113 27.727,2.154 41.319,0.182 82.641,0.234 123.959,-0.132 22.66,-0.201 45.32,-1.13 67.96,-2.197 4.57,-0.216 9.06,-2.47 13.538,-3.934 C 18.53,6.681 19.434,5.39 19.27,5.002 18.904,4.146 18.027,3.074 17.202,2.918 11.278,1.794 5.315,0.877 0,0" /></g><g
           transform="translate(1429.0137,1115.5532)"
           id="g3764"><path
             id="path3766"
             style="fill:#000000;fill-opacity:1;fill-rule:evenodd;stroke:none"
             d="m 0,0 h 3.999 c 0.226,-0.47 0.45,-0.94 0.675,-1.41 -1.292,-0.552 -2.812,-0.847 -3.809,-1.731 -0.932,-0.827 -1.893,-2.307 -1.841,-3.454 0.349,-7.643 -1.665,-10.2 -9.176,-9.962 -6.537,0.207 -13.044,1.242 -19.58,1.591 -12.88,0.689 -25.768,1.552 -38.659,1.642 -41.63,0.29 -83.275,-0.282 -124.893,0.545 -27.602,0.549 -55.168,2.916 -82.75,4.486 -17.56,0.999 -18.864,14.62 -12.572,25.318 1.472,2.505 6.178,4.34 9.422,4.379 28.175,0.335 56.362,0.582 84.532,0.089 35.404,-0.621 70.869,-0.903 106.169,-3.338 C -61.049,16.263 -33.828,11.283 -6.507,7.712 -2.181,7.147 -0.482,4.552 0,0" /></g><g
           transform="translate(786.4492,1151.8247)"
           id="g3768"><path
             id="path3770"
             style="fill:#000000;fill-opacity:1;fill-rule:evenodd;stroke:none"
             d="m 0,0 c -2.05,-2.851 -3.539,-4.92 -5.218,-7.253 1.438,-0.189 2.551,-0.336 3.615,-0.476 0.404,-4.034 0.782,-7.811 1.208,-12.065 -7.246,0 -14.451,-0.107 -21.651,0.028 -7.437,0.141 -14.87,0.744 -22.305,0.754 -69.305,0.093 -138.611,0.095 -207.916,0.14 -8.792,0.006 -13.21,2.733 -13.154,9.184 0.064,7.444 2.317,12.543 11.418,14.041 7.31,1.203 14.759,2.293 22.137,2.231 C -164.004,6.009 -96.144,5.231 -28.286,4.33 -20.559,4.228 -12.837,3.095 -5.138,2.225 -3.529,2.042 -2.027,0.908 0,0" /></g><g
           transform="translate(405.4687,1617.1953)"
           id="g3772"><path
             id="path3774"
             style="fill:#000000;fill-opacity:1;fill-rule:evenodd;stroke:none"
             d="M 0,0 C -2.071,-0.826 -3.007,-1.588 -3.608,-1.38 -11,1.171 -18.313,3.952 -25.71,6.487 c -4.089,1.401 -8.241,2.747 -12.472,3.566 -3.321,0.643 -6.865,0.094 -10.211,0.666 -31.905,5.448 -62.156,16.119 -91.785,28.891 -8.486,3.659 -17.275,7.214 -26.285,8.935 -20.188,3.856 -40.219,9.284 -61.117,8.321 -7.773,-0.358 -7.8,-0.282 -7.205,-7.26 0.056,-0.668 -0.208,-1.363 -0.395,-2.472 -7.079,-0.879 -14.142,-1.757 -21.36,-2.653 -1.963,7.41 -5.128,13.988 -1.807,21.758 2.769,6.477 9.359,8.86 15.893,6.04 4.269,-1.842 9.659,-1.003 14.522,-1.578 9.369,-1.109 18.714,-2.425 28.082,-3.543 5.048,-0.603 10.363,-0.175 15.144,-1.599 16.207,-4.829 32.366,-9.891 48.292,-15.568 33.253,-11.852 66.341,-24.168 99.508,-36.262 C -26.967,10.104 -16.985,6.601 -7.038,2.996 -5.09,2.291 -3.216,1.378 0,0" /></g><g
           transform="translate(377.6323,1526.4116)"
           id="g3776"><path
             id="path3778"
             style="fill:#000000;fill-opacity:1;fill-rule:evenodd;stroke:none"
             d="m 0,0 c -5.988,-2.392 -12.126,-4.469 -17.93,-7.244 -9.835,-4.703 -19.645,-9.521 -29.112,-14.911 -7.168,-4.08 -13.698,-9.266 -20.712,-13.642 -1.737,-1.083 -4.246,-0.93 -6.399,-1.346 -0.128,2.545 -1.396,6.129 -0.186,7.454 5.232,5.731 11.16,10.833 16.914,16.078 0.722,0.658 2.259,1.417 2.825,1.094 4.796,-2.746 5.926,1.864 8.374,3.91 7.37,6.16 14.683,12.397 22.244,18.314 3.461,2.709 7.425,4.785 11.217,7.054 1.511,0.903 3.18,2.18 4.765,2.163 2.229,-0.023 4.446,-1.092 6.668,-1.714 C -2.435,15.418 -3.127,13.019 -4.716,11.943 -10.743,7.864 -17.06,4.212 -22.67,-0.622 -16.207,2.072 -9.731,4.739 -3.284,7.47 1.663,9.565 5.318,8.855 6.817,2.727 6.009,1.999 5.038,1.124 4.066,0.25 4.378,-0.202 4.69,-0.653 5.003,-1.104 c 3.153,2.095 6.19,4.397 9.489,6.23 3.741,2.081 7.632,3.978 11.652,5.406 0.937,0.333 3.31,-1.248 3.893,-2.482 1.31,-2.77 -2.622,-10.512 -5.632,-11.393 -31.516,-9.222 -58.663,-26.702 -85.297,-45.123 -2.272,-1.571 -3.75,-4.252 -5.924,-6.014 -1.277,-1.035 -3.2,-1.272 -4.831,-1.868 -0.253,1.936 -1.445,4.632 -0.598,5.68 4.057,5.013 8.021,10.507 13.211,14.115 11.002,7.649 22.663,14.369 34.211,21.206 8.309,4.92 16.872,9.413 25.322,14.097 C 0.333,-0.833 0.167,-0.417 0,0" /></g><g
           transform="translate(1119.6943,1717.4512)"
           id="g3780"><path
             id="path3782"
             style="fill:#000000;fill-opacity:1;fill-rule:evenodd;stroke:none"
             d="M 0,0 C 2.276,2.877 3.799,5.573 6.046,7.356 7.419,8.446 9.91,8.326 11.89,8.291 12.308,8.283 13.316,5.96 12.96,5.257 12.199,3.754 10.894,2.379 9.508,1.366 5.84,-1.314 2.098,-3.916 -1.772,-6.291 c -7.965,-4.888 -16.513,-4.877 -25.603,-2.545 1.806,-4.081 0.931,-6.534 -3.127,-9.089 -10.988,-6.921 -21.729,-14.304 -32.033,-22.201 -3.641,-2.789 -8.66,-4.974 -8.95,-11.391 -0.129,-2.852 -3.717,-5.514 -5.626,-8.335 -0.85,-1.254 -1.488,-2.663 -2.124,-4.047 -0.86,-1.866 -1.624,-3.775 -2.544,-5.931 -2.693,1.234 -3.923,6.424 -7.17,1.955 -4.247,3.189 -2.893,6.716 -0.733,9.915 4.405,6.524 8.724,13.166 13.781,19.169 3.293,3.908 7.822,6.772 11.796,10.108 0.524,0.44 1.195,0.808 1.517,1.369 7.337,12.822 20.752,17.147 32.841,23.118 6.267,3.094 13.173,4.902 19.81,7.234 C -4.5,4.947 -1.438,4.13 0,0" /></g><g
           transform="translate(292.5024,1491.3774)"
           id="g3784"><path
             id="path3786"
             style="fill:#000000;fill-opacity:1;fill-rule:evenodd;stroke:none"
             d="m 0,0 c -0.775,1.988 -0.929,2.812 -1.366,3.436 -4.606,6.578 -4.625,8.883 -0.012,15.438 8.019,11.397 19.576,17.36 32.372,21.814 3.987,1.387 7.109,5.081 10.954,7.096 6.38,3.344 12.958,6.347 19.616,9.097 1.298,0.536 3.344,-0.739 5.045,-1.179 -0.99,-1.823 -1.516,-4.496 -3.045,-5.33 C 54.266,45.302 44.576,40.944 35.335,35.778 26.277,30.714 17.2,25.5 8.947,19.27 5.515,16.679 4.068,11.35 1.98,7.136 1.085,5.332 0.856,3.198 0,0" /></g><g
           transform="translate(933.1445,400.9502)"
           id="g3788"><path
             id="path3790"
             style="fill:#000000;fill-opacity:1;fill-rule:evenodd;stroke:none"
             d="m 0,0 c 8.729,1.728 7.228,-6.326 9.3,-9.801 2.18,-3.653 1.107,-9.245 1.423,-13.561 -2.022,-1.122 -3.657,-1.505 -4.383,-2.532 -2.032,-2.874 -3.698,-4.049 -7.636,-2.39 -3.14,1.322 -4.665,2.662 -5.863,5.797 -2.029,5.304 -5.327,10.128 -7.313,15.444 -1.777,4.76 2.644,8.861 8.018,8.375 1.028,-0.092 2.398,1.064 3.224,1.987 0.86,0.966 1.253,2.348 1.85,3.547 C -0.92,5.426 -0.4,4 -0.028,2.537 0.136,1.894 0,1.173 0,0" /></g><g
           transform="translate(1657.4111,1426.6724)"
           id="g3792"><path
             id="path3794"
             style="fill:#000000;fill-opacity:1;fill-rule:evenodd;stroke:none"
             d="m 0,0 c -0.878,-1.202 -1.543,-3.052 -2.505,-3.221 -1.692,-0.298 -4.262,-0.215 -5.245,0.843 -4.565,4.911 -9.161,9.907 -12.917,15.436 -7.937,11.684 -18.521,20.572 -29.275,29.371 -1.004,0.821 -1.651,2.081 -2.462,3.138 1.105,0.52 2.219,1.021 3.312,1.566 5.144,2.565 8.451,-0.958 11.615,-3.857 10.414,-9.544 20.048,-19.79 27.873,-31.66 C -7.685,8.703 -4.837,6.41 -2.51,3.75 -1.604,2.715 -0.958,1.453 0,0" /></g><g
           transform="translate(271.2402,1518.9683)"
           id="g3796"><path
             id="path3798"
             style="fill:#000000;fill-opacity:1;fill-rule:evenodd;stroke:none"
             d="m 0,0 c 3.38,3.64 6.403,8.125 10.519,11.1 12.756,9.219 25.89,17.92 38.996,26.643 1.279,0.851 3.381,0.465 5.102,0.653 -0.386,-2.273 0.045,-5.474 -1.301,-6.659 C 47.923,26.982 42.309,22.301 36.161,18.619 26.608,12.899 16.982,7.438 9.357,-0.892 8.305,-2.042 6.926,-2.964 5.549,-3.722 4.55,-4.271 2.873,-4.975 2.271,-4.54 1.335,-3.863 1.057,-2.278 0,0" /></g><g
           transform="translate(1603.2148,1449.2612)"
           id="g3800"><path
             id="path3802"
             style="fill:#000000;fill-opacity:1;fill-rule:evenodd;stroke:none"
             d="m 0,0 c 3.387,-1.168 7.79,-1.373 9.978,-3.68 7.765,-8.189 15.093,-16.853 21.944,-25.828 3.658,-4.792 6.219,-10.487 8.795,-15.998 0.77,-1.65 -0.082,-4.058 -0.191,-6.119 -2.01,1.006 -4.044,1.971 -6.012,3.051 -0.406,0.222 -0.63,0.848 -0.847,1.329 C 27.475,-33.49 16.922,-23.07 7.123,-12.015 4.08,-8.582 2.412,-3.931 0.115,0.163 Z" /></g><g
           transform="translate(1626.5977,1485.772)"
           id="g3804"><path
             id="path3806"
             style="fill:#000000;fill-opacity:1;fill-rule:evenodd;stroke:none"
             d="m 0,0 c 3.459,-1.857 7.217,-2.862 9.481,-5.269 8.791,-9.346 17.121,-19.129 25.586,-28.779 0.925,-1.055 2.278,-2.301 2.284,-3.465 0.01,-1.853 -0.459,-4.223 -1.674,-5.378 -0.734,-0.696 -3.926,-0.111 -4.869,0.933 -6.267,6.927 -12.056,14.288 -18.341,21.198 -4.315,4.745 -9.26,8.912 -13.743,13.513 -1.184,1.214 -2.124,3.031 -2.313,4.67 C -3.665,-1.912 -1.434,-0.982 0,0" /></g><g
           transform="translate(1603.3301,1449.4238)"
           id="g3808"><path
             id="path3810"
             style="fill:#000000;fill-opacity:1;fill-rule:evenodd;stroke:none"
             d="m 0,0 c -1.641,-0.252 -3.792,-1.304 -4.84,-0.633 -10.357,6.637 -20.556,13.524 -30.731,20.442 -1.424,0.967 -3.074,2.3 -3.538,3.798 -0.549,1.777 0.072,3.916 0.186,5.898 1.571,-0.215 3.468,0.061 4.664,-0.725 C -24.55,22.4 -14.996,15.784 -5.34,9.321 -1.902,7.02 0.566,4.325 -0.119,-0.17 -0.115,-0.163 0,0 0,0" /></g><g
           transform="translate(1665.7773,1471.7207)"
           id="g3812"><path
             id="path3814"
             style="fill:#000000;fill-opacity:1;fill-rule:evenodd;stroke:none"
             d="m 0,0 c -3.964,3.193 -6.953,5.447 -9.759,7.909 -2.367,2.078 -4.678,4.268 -6.7,6.672 -0.923,1.097 -1.092,2.829 -1.603,4.273 1.849,0.583 4.674,2.233 5.396,1.576 C -7.052,15.318 1.039,11.718 0,0" /></g><g
           transform="translate(1407.0391,1137.5049)"
           id="g3816"><path
             id="path3818"
             style="fill:#000000;fill-opacity:1;fill-rule:evenodd;stroke:none"
             d="M 0,0 C -17.386,0.699 -34.771,1.398 -52.137,2.098 H 0.109 C 0.072,1.398 0.036,0.699 0,0" /></g><g
           transform="translate(205.8657,889.1299)"
           id="g3820"><path
             id="path3822"
             style="fill:#000000;fill-opacity:1;fill-rule:evenodd;stroke:none"
             d="M 0,0 C 8.328,4.9 1.396,11.687 4.269,16.839 9.554,15.361 8.608,10.451 8.598,7.327 8.588,4.286 5.917,1.229 4.212,-1.706 4.13,-1.848 2.115,-0.868 0,0" /></g><g
           transform="translate(1698.9316,1359.9863)"
           id="g3824"><path
             id="path3826"
             style="fill:#000000;fill-opacity:1;fill-rule:evenodd;stroke:none"
             d="M 0,0 C -0.89,2.959 -1.726,5.744 -2.593,8.628 2.326,10.31 4.366,8.798 5.037,3.964 5.622,-0.254 3.634,-0.437 0,0" /></g><g
           transform="translate(188.5205,885.5176)"
           id="g3828"><path
             id="path3830"
             style="fill:#000000;fill-opacity:1;fill-rule:evenodd;stroke:none"
             d="M 0,0 C 5.047,0.799 10.095,1.599 15.143,2.397 15.211,1.74 15.279,1.082 15.348,0.424 10.296,0.111 5.246,-0.202 0.195,-0.516 Z" /></g><g
           transform="translate(1027.915,399.0479)"
           id="g3832"><path
             id="path3834"
             style="fill:#ffffff;fill-opacity:1;fill-rule:evenodd;stroke:none"
             d="m 0,0 c -1.375,1.226 -2.31,2.542 -3.578,3.101 -4.152,1.826 -7.659,3.686 -8.038,9.178 -0.129,1.875 -2.917,3.767 -4.787,5.283 -6.537,5.3 -13.216,10.425 -19.818,15.645 -5.11,4.038 -10.312,7.975 -15.223,12.243 -2.327,2.025 -4.071,4.72 -6.973,8.176 -0.767,-1.948 -1.346,-3.42 -1.926,-4.891 l -1.04,0.909 c 2.778,6.96 -0.68,8.742 -5.536,8.403 -1.927,2.697 -3.09,5.167 -4.977,6.807 -5.639,4.897 -11.562,9.468 -17.374,14.167 0.208,0.571 0.416,1.14 0.625,1.709 3.398,-0.278 6.791,-0.692 10.195,-0.815 20.143,-0.728 40.307,-1.06 60.424,-2.213 C -8.05,77.13 2.116,76.066 11.677,73.379 18.479,71.466 24.255,66.15 30.768,62.916 44.29,56.201 57.304,49 67.859,37.752 c 2.582,-2.753 6.203,-7.014 11.717,-4.967 0.29,0.107 1.893,-2.084 2.143,-3.35 0.628,-3.182 -0.106,-6.981 1.375,-9.582 4.925,-8.651 7.456,-17.673 7.228,-27.624 -0.218,-9.568 -8.335,-17.844 -17.784,-17.944 -5.455,-0.057 -11.18,-1.639 -16.298,-0.451 -8.006,1.859 -16,4.727 -23.273,8.548 C 22.847,-12.302 13.431,-5.654 3.604,0.241 2.662,0.807 0.948,0.087 0,0" /></g><g
           transform="translate(849.8252,482.8984)"
           id="g3836"><path
             id="path3838"
             style="fill:#ffffff;fill-opacity:1;fill-rule:evenodd;stroke:none"
             d="m 0,0 c -0.944,-0.187 -1.888,-0.375 -3.645,-0.726 3.825,-4.729 8.35,-5.839 14.8,-5.477 -3.752,-6.43 -7.051,-12.314 -10.569,-18.062 -6.26,-10.231 -13.032,-20.169 -18.91,-30.612 -11.378,-20.215 -29.039,-34.677 -45.341,-50.364 -3.558,-3.424 -8.297,-5.755 -12.786,-8.005 -1.585,-0.796 -4.044,0.245 -6.108,0.295 -9.982,0.239 -19.7,1.455 -27.75,8.112 -1.247,1.031 -2.482,2.894 -2.534,4.413 -0.308,8.864 2.003,16.916 7.857,23.879 6.686,7.95 12.363,16.912 19.84,23.997 11.99,11.362 24.646,22.151 37.89,32.011 9.342,6.956 20.043,12.128 30.312,17.778 3.695,2.033 7.838,3.349 11.906,4.553 C -3.57,2.226 -1.72,1.372 -0.044,1.104 -0.029,0.736 -0.015,0.369 0,0" /></g><g
           transform="translate(882.3213,330.8184)"
           id="g3840"><path
             id="path3842"
             style="fill:#ffffff;fill-opacity:1;fill-rule:evenodd;stroke:none"
             d="m 0,0 h -6.756 c 1.679,2.154 3.358,4.309 5.737,7.361 C -0.618,4.47 -0.375,2.714 0,0" /></g><g
           transform="translate(1136.7129,1583.1221)"
           id="g3844"><path
             id="path3846"
             style="fill:#ffffff;fill-opacity:1;fill-rule:evenodd;stroke:none"
             d="m 0,0 c -0.675,0.437 -1.653,0.715 -1.978,1.335 -8.365,16.006 -16.697,32.03 -24.886,48.126 -0.513,1.007 0.181,2.626 0.934,4.207 C -16.065,36.461 -5.555,19.647 1.372,1.001 0.915,0.667 0.457,0.333 0,0" /></g></g></g></g></svg>