<svg width="2730.7" height="2730.7" version="1.1" viewBox="0 0 2730.6667 2730.6667" xmlns="http://www.w3.org/2000/svg">
 <defs>
  <clipPath id="clipPath3734">
   <path d="m0 2048h2048v-2048h-2048z"/>
  </clipPath>
 </defs>
 <g transform="matrix(1.3333 0 0 -1.3333 0 2730.7)">
  <g clip-path="url(#clipPath3734)">
   <g transform="translate(882.32 330.82)">
    <path d="m0 0c-0.375 2.714-0.618 4.47-1.019 7.361-2.379-3.052-4.058-5.207-5.737-7.361zm-32.496 152.08c-0.015 0.369-0.029 0.736-0.044 1.105-1.676 0.267-3.526 1.121-4.994 0.687-4.069-1.204-8.211-2.519-11.906-4.553-10.269-5.65-20.97-10.822-30.312-17.778-13.245-9.86-25.9-20.649-37.89-32.011-7.477-7.085-13.154-16.047-19.84-23.997-5.854-6.963-8.165-15.014-7.857-23.879 0.052-1.519 1.287-3.382 2.534-4.413 8.05-6.657 17.768-7.873 27.75-8.112 2.064-0.05 4.523-1.091 6.108-0.295 4.489 2.25 9.228 4.581 12.786 8.005 16.302 15.687 33.963 30.149 45.341 50.364 5.878 10.443 12.65 20.381 18.91 30.612 3.518 5.748 6.817 11.632 10.569 18.062-6.45-0.362-10.975 0.748-14.8 5.477 1.757 0.351 2.701 0.539 3.645 0.726m178.09-83.851c0.948 0.087 2.662 0.807 3.604 0.242 9.826-5.896 19.242-12.543 29.363-17.86 7.273-3.821 15.267-6.688 23.273-8.548 5.118-1.188 10.843 0.394 16.298 0.452 9.449 0.099 17.566 8.376 17.784 17.944 0.228 9.95-2.304 18.973-7.229 27.623-1.48 2.602-0.747 6.4-1.375 9.582-0.25 1.267-1.852 3.457-2.142 3.351-5.515-2.047-9.135 2.214-11.717 4.966-10.556 11.248-23.569 18.45-37.092 25.165-6.512 3.234-12.289 8.549-19.09 10.462-9.561 2.688-19.728 3.751-29.703 4.324-20.117 1.153-40.281 1.484-60.424 2.213-3.404 0.123-6.797 0.537-10.195 0.815-0.209-0.569-0.417-1.139-0.625-1.709 5.812-4.699 11.735-9.271 17.374-14.168 1.887-1.64 3.05-4.109 4.976-6.807 4.857 0.339 8.314-1.442 5.537-8.403l1.04-0.908c0.58 1.471 1.159 2.942 1.925 4.89 2.903-3.456 4.646-6.151 6.974-8.175 4.911-4.269 10.113-8.205 15.223-12.243 6.602-5.22 13.281-10.345 19.817-15.645 1.871-1.517 4.659-3.408 4.788-5.283 0.378-5.492 3.885-7.353 8.038-9.179 1.268-0.559 2.203-1.875 3.578-3.101m691.08 819.67c8.262 1.077 9.003 1.219 10.654-7.442 2.906-15.243 4.924-30.662 7.086-46.039 1.248-8.887 2.281-17.817 2.996-26.762 1.099-13.751 1.608-27.553 2.824-41.292 0.707-8.008 2.713-15.905 3.364-23.915 0.449-5.562 0.074-11.307-0.778-16.84-4.406-28.608-9.074-57.175-13.67-85.754-4.868-30.276-12.672-59.854-22.444-88.856-6.58-19.535-14.453-38.638-21.812-57.909-1.612-4.222-4.166-8.21 0.151-12.525 0.725-0.724 0.049-3.631-0.801-5.034-8.695-14.369-17.448-28.707-26.453-42.885-2.403-3.783-5.714-6.991-8.624-10.451-0.201-0.241-0.781-0.407-0.763-0.554 1.165-9.297-6.043-14.877-10.485-21.082-11.273-15.742-23.411-30.932-36.073-45.591-12.459-14.423-25.41-28.528-39.205-41.659-14.821-14.108-30.358-27.587-46.538-40.105-15.603-12.071-33.679-21.165-48.288-34.228-10.266-9.181-22.792-10.587-33.774-16.519-6.666-3.602-13.286-7.196-21.257-7.624-5.861-0.314-11.848-1.216-17.44-2.949-7.388-2.29-14.439-5.67-21.647-8.549-20.3-8.108-41.467-13.102-62.832-17.329-24.8-4.907-49.552-10.113-74.465-14.374-23.146-3.959-46.482-6.803-69.719-10.237-6.478-0.956-12.913-2.205-19.341-3.461-1.254-0.246-2.379-1.156-4.769-2.372 6.441-2.986 11.752-5.45 17.329-8.036-1.852-1.057-3.601-2.054-5.706-3.257-2.93 3.065-6.133 5.085-9.768 0.406-0.674-0.868-2.622-1.062-3.973-1.04-9.155 0.145-18.191 0.798-25.075 8.4-1.691-3.793-2.042-7.287-8.208-6.308-6.055 0.962-12.652-1.419-18.991-2.46-0.663-0.109-1.187-1.063-1.963-1.804 16.456-7.825 28.001-21.061 38.69-34.403 6.398-7.986 9.567-18.944 12.751-29.02 3.93-12.44 4.847-25.661-2.488-37.138-5.426-8.489-10.687-17.924-21.282-21.682-0.826-0.293-1.639-0.943-2.443-0.918-12.573 0.377-25.462-0.787-37.649 1.607-27.541 5.412-50.515 19.84-70.196 39.798-3.769 3.821-9.062 6.102-13.433 9.386-2.108 1.585-3.648 3.91-5.556 5.788-1.771 1.742-3.691 3.336-5.954 5.359 1.167 1.037 2.536 2.256 3.255 2.896 0.107 2.464 0.189 4.348 0.272 6.232-0.201-0.474-0.401-0.947-0.601-1.42-1.625 2.002-3.248 4.005-4.889 6.028-6.423-6.175-11.444-5.184-21.611 5.871 2.921-0.737 6.733-3.216 5.492 2.938-6.424-1.921-10.658 1.73-15.137 5.59-6.387 5.504-13.235 10.474-21.025 16.561 0.508-3.973 0.701-6.672 1.22-9.307 1.292-6.559 2.746-13.086 4.096-19.632 0.139-0.67 0.287-1.84-0.02-2.021-5.201-3.088-1.828-7.387-1.342-11.514-2.161 0.471-3.942 0.859-6 1.307 0.832 1.632 1.555 3.047 2.277 4.464-0.376 0.29-0.752 0.581-1.127 0.872-1.519-1.851-2.996-3.738-4.568-5.542-1.413-1.62-2.931-3.148-4.403-4.716-2.168 2.135-5.436 3.905-6.292 6.478-2.335 7.021-3.664 14.378-5.369 21.606-1.17 4.963-2.3 9.937-3.448 14.905-0.615 0.098-1.229 0.195-1.844 0.292-4.952-19.378-9.903-38.757-14.855-58.135 0.441-0.092 0.882-0.183 1.322-0.275-0.401 0.755-0.802 1.509-1.202 2.264 3.091-17.999 1.368-35.954 1.265-53.813-0.059-10.303 1.728-19.842 5.733-29.298 1.334-3.15 0.211-7.342 0.211-13.337-6.653 9.789-12.453 6.429-17.85 1.461-7.662 9.446-11.983 19.253-9.122 29.76-0.93 5.388-2.181 9.582-2.283 13.804-0.311 12.894 0.301 25.823-0.332 38.696-0.959 19.556 4.314 38.167 7.719 58.607-3.456-5.204-6.157-9.32-8.906-13.403-7.227-10.733-13.872-21.929-21.893-32.033-7.171-9.034-15.458-17.308-24.013-25.081-7.843-7.127-16.189-13.992-25.25-19.405-9.646-5.764-20.546-8.442-32.053-4.927-1.758 0.536-3.787 0.452-5.662 0.299-12.92-1.056-22.401 6.057-31.422 13.656-4.052 3.414-2.936 9.016-2.999 13.821-0.037 2.858 0.424 5.726 0.77 9.9 4.333 2.841 6.049 4.708-4.77 13.195 3.41 6.565 6.6 13.529 10.552 20.03 2.633 4.328 7.391 7.539 9.368 12.052 3.928 8.962 11.898 13.869 18.185 20.443 3.855 4.029 8.043 7.775 12.361 11.309 1.8 1.47 4.325 2.056 6.52 3.045 0.633-1.774 1.22-3.568 1.938-5.306 0.149-0.36 0.793-0.515 1.476-0.924 0 1.91-0.207 3.577 0.059 5.164 0.259 1.552 1.001 3.023 1.531 4.529 1.245-0.706 2.49-1.41 3.91-2.214 2.451-0.352-1.362 7.621 4.066 4.017 0.863 1.282 1.867 2.778 3.173 4.719-0.763 0.246-2.577 0.829-4.5 1.448 0.531 3.467 1.095 7.141 1.776 11.582-1.515-1.642-2.687-2.915-3.574-3.876-1.942 2.24-4.008 4.29-5.663 6.63-1.512 2.139-2.838 3.122-5.038 0.959-0.305-0.302-1.111-0.469-1.471-0.283-10.311 5.32-22.091 2.396-32.761 5.792-1.058 0.337-2.814-0.55-3.858-1.365-1.636-1.278-2.942-2.978-4.407-4.522-2.404 3.004-2.404 3.004 1.85 6.28-4.115 0.449-7.566 0.827-10.805 1.178-0.276-2.383-0.504-4.336-0.731-6.288-1.655 3.996-4.54 4.897-9.152 2.955-3.682-1.548-6.647-1.528-10.876 0.753-7.419 4-13.911 10.695-23.249 10.539-1.632-0.027-3.258-0.428-4.887-0.656 0.583-1.259 1.29-2.48 1.706-3.792 0.29-0.915 0.581-2.245 0.137-2.862-0.448-0.621-1.912-1.002-2.74-0.779-4.522 1.223-9.121 2.337-13.428 4.127-3.877 1.613-7.227 4.562-11.152 5.964-3.385 1.211-7.289 0.891-10.891 1.609-1.83 0.365-3.503 1.526-5.076 3.336-2.648-0.177-5.295-0.357-8.807-0.593-0.246 0.422-1.083 1.856-2.12 3.634-8.59-5.83-15.367-0.693-23.176 2.749-5.191 2.288-9.636 7.119-16.527 6.299-2.949-0.35-6.287 2.661-9.467 4.104-0.937 0.427-1.928 0.742-2.911 1.056-6.123 1.961-12.29 3.797-18.341 5.959-1.047 0.374-1.707 2.05-2.368 3.224-0.773 1.372-1.35 2.855-3.248 3.956-0.099-1.386-0.198-2.772-0.343-4.805-2.387 1.245-4.484 2.403-6.639 3.441-1.985 0.957-4.16 1.583-6.005 2.745-1.169 0.737-1.886 2.189-2.665 3.147-7.096-2.32-7.116-2.309-9.674 5.206-2.924-4.874-6.461-3.336-10.331-1.647-6.974 3.045-14.147 5.631-21.149 8.616-3.261 1.391-7.285 1.915-8.119 6.675-0.171 0.981-2.516 1.725-3.966 2.315-9.18 3.726-18.834 6.559-27.478 11.259-11.294 6.14-22.295 13.076-32.551 20.821-48.267 36.458-95.121 74.576-138.36 117.05-19.323 18.983-40.478 36.092-60.044 54.841-7.149 6.852-12.562 15.701-17.965 24.152-11.536 18.041-22.577 36.4-33.737 54.68-1.257 2.059-1.978 4.445-2.909 6.59 8.224 5.526 9.617 9.734 6.139 19.039-1.609 4.305-3.866 8.363-5.639 12.613-1.9 4.552-3.852 9.072-2.393 14.319 0.4 1.436-0.163 3.964-1.231 4.846-5.937 4.914-7.797 11.816-9.232 18.718-5.772 27.751-11.336 55.548-16.713 83.379-0.584 3.024 1.151 6.46 0.734 9.561-0.671 4.985-2.943 9.801-3.296 14.776-1.027 14.472-1.461 28.985-2.076 43.483-0.29 6.86-0.537 13.724-0.67 20.588-0.279 14.203 2.569 27.955 5.195 41.854 2.418 12.806 2.438 26.054 3.739 39.084 1.883 18.865 3.722 37.74 6.127 56.541 0.658 5.15 3.215 10.07 5.007 15.056 0.888 2.472 2.479 4.772 2.936 7.298 0.757 4.191 3.005 7.039 5.639 10.297 3.069 3.795 4.581 9.037 6.096 13.862 4.183 13.318 8.318 26.669 11.725 40.195 0.669 2.656 3.664 6.565-0.437 9.604-0.33 0.245 0.615 2.196 0.954 3.359 4.657 16.002 9.312 32.006 14.166 48.692-2.447-0.179-3.904-0.285-5.808-0.424 1.458 2.32 2.686 4.403 4.051 6.392 0.69 1.004 2.412 1.913 2.334 2.737-0.922 9.677 8.337 14.204 11.119 22.241 2.692 7.773 8.687 14.373 13.019 21.616 2.255 3.77 4.483 7.665 5.893 11.788 0.838 2.453 0.838 5.77-0.126 8.156-3.033 7.499-6.192 15.038-10.275 21.991-3.541 6.032-8.532 11.196-12.636 16.92-2.227 3.106-4.524 6.37-5.794 9.918-7.437 20.774-14.741 41.599-21.762 62.517-4.384 13.062-8.42 26.255-12.096 39.532-0.921 3.325 0.303 7.205 0.233 10.824-0.031 1.594-0.833 3.174-1.429 5.265 0.221 0.085 1.259 0.482 3.386 1.296-2.48 1.269-4.262 2.181-6.984 3.573 2.042 0.654 3.061 0.98 4.474 1.432-0.874 1.356-1.59 2.466-2.815 4.365 1.638-0.438 2.535-0.678 3.864-1.034 0.275 4.064 0.544 8.051 0.869 12.868 4.408-1.632 8.879-2.767 12.737-4.974 1.529-0.875 2.074-4.074 2.414-6.314 1.346-8.867 2.547-17.761 3.52-26.675 0.193-1.76-0.857-3.656-1.219-5.046 1.203-1.373 3.327-2.786 3.961-4.694 2.817-8.479 4.987-17.173 7.824-25.644 2.256-6.738 5.138-13.267 7.746-19.888 4.068-10.325 8.282-20.595 12.171-30.988 4.515-12.065 8.551-24.313 13.181-36.332 2.383-6.186 5.134-12.177 9.055-17.773 2.656-3.79 2.559-9.406 4.239-14.006 2.919-7.993 1.059-14.107-5.68-19.344-2.998-2.33-5.073-5.849-7.858-9.174 4.335-3.538 2.321-6.315-0.691-9.081-16.46-15.112-22.182-35.428-26.711-56.418 1.751 2.565 3.437 5.176 5.275 7.676 1.038 1.411 2.194 3.54 3.533 3.735 1.957 0.286 4.126-0.873 6.205-1.417-0.879-1.412-1.456-3.628-2.692-4.092-4.414-1.662-6.351-3.948-4.585-8.84 0.483-1.341-0.522-3.379-1.191-4.949-3.523-8.285-7.784-16.317-10.572-24.836-2.609-7.97-3.99-16.389-5.4-24.696-4.141-24.405-7.973-48.862-12.131-73.263-0.302-1.777-1.991-3.593-3.496-4.828-2.614-2.142-3.092-4.28-1.872-7.429 0.818-2.115 1.294-4.745 0.826-6.908-2.001-9.251-4.797-18.342-6.561-27.632-1.752-9.229-2.123-18.73-4.055-27.911-1.162-5.524 1.982-9.305 3.213-13.87 0.511-1.895 1.351-4.082 0.867-5.807-4.473-15.945-3.993-32.234-3.896-48.528 0.063-10.775 0.027-21.565-0.524-32.319-0.153-2.959-2.319-5.815-3.638-8.896-0.81 0.692-1.57 1.343-1.338 1.144-2.345-0.734-4.011-1.255-6.797-2.127 0.299-4.354 0.679-9.88 1.059-15.407 0.643-0.028 1.285-0.057 1.928-0.085 0.456 1.151 0.721 2.432 1.405 3.426 1.686 2.449 4.342 3.891 7.002 2.77 1.456-0.612 2.662-3.16 2.945-4.995 1.642-10.648 2.91-21.354 4.43-32.023 2.118-14.858 4.508-29.679 6.455-44.558 0.905-6.91 3.419-14.909 1.022-20.678-4.797-11.544-1.024-21.131 2.704-31.213 2.013-5.443 4.353-10.783 6.9-15.996 0.684-1.402 2.674-3.064 4.05-3.052 3.463 0.03 4.99-1.745 6.463-4.421 14.209-25.798 30.874-49.91 49.703-72.56 1.496-1.8 1.158-5.017 2.391-7.162 2.288-3.981 4.861-7.857 7.745-11.43 16.806-20.812 33.367-41.843 52.841-60.33 2.132-2.025 3.69-4.656 6.231-7.928-3.373 0.705-5.827 1.218-8.282 1.733-0.348-0.562-0.695-1.124-1.042-1.685 9.839-8.586 19.224-17.774 29.618-25.627 18.282-13.812 37.157-26.842 55.833-40.131 7.219-5.136 14.747-9.852 21.834-15.161 17.244-12.914 35.868-23.441 55.191-32.841 18.441-8.972 36.767-18.184 55.261-27.045 9.419-4.515 18.865-9.191 28.742-12.449 5.926-1.956 12.711-1.278 19.101-1.873 2.449-0.228 4.953-0.433 7.297-1.111 21.099-6.098 42.113-12.495 63.268-18.389 10.714-2.985 21.938-4.301 32.45-7.814 16.961-5.67 35.173-4.726 51.865-9.751 22.734-6.844 45.984-4.961 68.866-8.029 13.85-1.858 27.847-2.669 41.793-3.76 16.94-1.323 33.928-2.128 50.829-3.815 6.481-0.647 12.77-3.149 19.167-4.719 2.034-0.5 4.134-1.017 6.206-1.024 33.875-0.113 67.762-0.712 101.62-0.023 28.49 0.581 57.009 1.957 85.406 4.305 30.978 2.561 61.818 6.757 92.743 10.007 11.436 1.202 22.991 1.34 34.403 2.702 9.813 1.171 19.57 3.08 29.226 5.227 13.074 2.908 26.053 6.253 39.027 9.594 32.058 8.255 64.168 16.334 96.094 25.076 11.892 3.257 23.285 8.305 34.993 12.278 15.66 5.315 30.307 12.606 44.238 21.482 9.963 6.347 20.506 11.839 30.121 18.655 8.691 6.162 16.61 13.45 24.631 20.512 19.075 16.793 38.398 33.334 56.856 50.786 11.357 10.736 22.843 21.401 31.011 35.322 16.96 28.909 37.943 55.364 52.379 85.858 6.569 13.876 12.645 28.21 21.113 40.888 6.756 10.116 7.246 21.888 12.504 32.301 5.207 10.312 7.936 21.94 11.2 33.15 3.314 11.385 6.268 22.899 8.799 34.483 2.494 11.422 4.781 22.938 6.215 34.53 1.803 14.575 2.321 29.309 4.054 43.895 0.788 6.639 3.156 13.092 4.91 20.029-4.759 2.909-3.291 8.832-2.893 13.912 0.698 8.891 2.363 17.704 3.539 26.561 0.751 5.662 0.483 10.896-2.482 16.349-2.139 3.935-1.839 9.218-2.523 13.915-1.78 12.235-3.65 24.46-5.211 36.724-2.413 18.949-3.994 38.025-7.033 56.869-3.848 23.861-11.094 46.888-19.476 69.554-3.804 10.286-7.342 20.68-10.661 31.132-1.185 3.733-2.472 7.707 1.669 11.228 1.043 0.887-0.495 4.532-0.4 6.891 0.089 2.175 0.781 4.324 1.206 6.484 1.573-1.554 3.948-2.835 4.587-4.709 3.756-11.014 6.957-22.217 10.675-33.245 1.389-4.121 3.962-7.832 5.482-11.921 3.094-8.327 5.646-16.857 8.794-25.162 2.473-6.522 5.568-12.806 8.257-19.249 0.882-2.112 1.763-4.367 1.9-6.602 0.118-1.911-0.195-4.558-1.417-5.72-5.222-4.958-5.536-5.952-1.753-12.983" fill-rule="evenodd"/>
   </g>
   <g transform="translate(1136.7 1583.1)">
    <path d="m0 0c0.457 0.333 0.915 0.667 1.372 1.001-6.927 18.646-17.437 35.46-27.302 52.667-0.753-1.581-1.447-3.2-0.934-4.207 8.189-16.096 16.521-32.12 24.886-48.126 0.325-0.62 1.303-0.898 1.978-1.335m349.9-41.121c-5.739-5.394-4.41-8.769-0.205-12.164 2.095-1.691 3.503-4.234 6.381-7.847-5.352-0.239-9.145-0.834-12.847-0.48-6.492 0.622-12.897 2.266-19.391 2.71-30.21 2.064-59.576 8.196-88.496 17.032-5.192 1.587-11.124 0.754-15.257 0.964-2.123 2.251-3.094 4.23-4.461 4.561-5.149 1.246-10.394 2.398-15.662 2.784-19.061 1.398-38.139 2.608-57.223 3.636-33.946 1.828-67.886 4.014-101.86 5.027-29.416 0.877-58.876 0.426-88.315 0.369-10.449-0.021-20.905-0.44-31.343-0.974-19.777-1.013-39.21 2.056-58.733 4.362-8.957 1.058-18.015 1.488-27.039 1.692-33.325 0.752-66.655 1.633-99.986 1.787-21.792 0.1-43.59-1.015-65.387-1.501-19.313-0.43-38.641-0.411-57.939-1.187-27.765-1.114-55.528-2.479-83.256-4.278-26.276-1.705-52.482-5.198-78.767-5.792-15.656-0.355-30.37-3.671-45.346-6.934-7.797-1.7-15.794-2.466-23.617-4.068-3.518-0.722-6.741-2.985-10.261-3.573-3.165-0.527-6.553 0.281-9.854 0.5-0.11 1.764-0.196 3.152-0.286 4.615-0.779-0.115-1.333-0.057-1.418-0.229-1.28-2.607-1.934-5.058 1.887-6.129 0.292-0.082 0.501-0.464 1.174-1.121-3.303-1.339-6.372-2.582-9.841-3.989-1.231 3.863-2.952 6.239-7.147 3.052 1.329-1.191 2.481-2.224 3.633-3.256-0.126-0.444-0.252-0.887-0.378-1.331-2.169 0.404-5.05 0.071-6.375 1.35-3.961 3.822-3.601 8.881-1.782 14.043 0.441-1.656 0.881-3.311 1.663-6.245 0.968 3.653 1.401 6.201 2.346 8.541 0.651 1.611 2.014 2.935 3.058 4.388 1.329-1.288 2.658-2.575 4.896-4.746 2.091 2.734 4.422 5.783 6.753 8.832l-1.164 0.93c3.764 1.398 7.529 2.796 12.256 4.55-30.693 17.393-60.461 34.262-91.307 51.741 2.61-0.39 4.386-0.413 6.002-0.935 13.278-4.289 26.451-8.921 39.811-12.933 8.576-2.575 17.608-3.707 26.071-6.567 5.947-2.008 11.35-5.714 16.868-8.886 5.493-3.158 10.649-6.937 16.271-9.826 7.925-4.073 15.808-6.294 25.08-2.316 6.663 2.858 14.428 3.386 21.782 4.306 4.527 0.567 7.072 1.427 3.56 7.579 11.123 0 21.41 0.574 31.611-0.127 17.776-1.22 35.478-3.49 53.248-4.817 14.283-1.067 28.622-1.388 42.936-2.046 2.665-0.122 5.815 0.958 6.779-3.177 0.139-0.596 2.122-1.04 3.269-1.084 24.403-0.913 48.808-1.799 73.216-2.571 3.258-0.103 6.593-0.336 8.586 3.636 1.869 3.722-2.479 5.393-2.84 5.381-5.623-0.199-2.714 3.767-3.958 7.102 3.118-1.675 5.166-2.776 7.483-4.021 0.814 1.7 1.551 3.239 2.42 5.052 5.747 0 11.584 0.028 17.42-0.03 0.827-9e-3 2-0.164 2.424-0.709 6.913-8.876 17.248-4.632 25.924-6.638 0.405-0.093 2.015 2.705 2.164 4.244 0.54 5.585 0.709 11.206 0.993 16.815 0.366 7.206 3.305 14.3-0.472 21.684-1.202 2.349-2.18 7.481 4.301 7.725-4.603 1.46-7.432 3.651-7.342 8.533 0.114 6.162 1.953 11.521 5.432 16.055-0.221 2.527-0.652 5.14-0.642 7.751 0.043 12.247 3.682 23.527 8.385 34.774 3.726 8.905 5.638 18.562 8.465 27.852 4.061 13.344 11.644 24.884 19.206 36.367 4.063 6.17 8.822 11.893 13.445 17.677 1.151 1.44 2.99 2.331 4.996 3.836 0.619 6.938 6.556 11.209 11.189 16.325 1.928 2.128 3.796 4.356 5.993 6.173 1.167 0.965 2.982 1.148 4.695 1.751-1.38 4.852 2.769 7.159 5.76 9.752 1.792 1.555 4.641 1.825 6.803 3.047 1.081 0.61 1.741 2.024 2.497 3.139 1.998 2.946 3.3 6.869 6.023 8.732 12.217 8.367 24.888 16.104 39.803 18.764 4.177 0.744 8.509 0.615 13.664 0.944 2.638 4.63 8.54 6.631 14.232 7.377 8.698 1.141 17.585 0.919 26.394 1.099 7.923 0.161 15.869 0.407 23.773 3e-3 5.772-0.295 11.508-1.501 17.232-2.461 4.69-0.787 9.346-1.784 14.005-2.743 1.556-0.319 3.205-0.555 4.596-1.258 14.649-7.415 29.835-13.988 43.7-22.666 12.837-8.034 25.702-16.994 35.921-27.992 13.41-14.433 28.256-28.064 35.983-47.299 4.042-10.059 10.992-18.937 16.49-28.427 3.073-5.304 2.619-9.588-1.921-12.619-3.557-2.374-7.163-1.022-10.731 1.435-17.588 12.113-36.885 20.766-56.761 28.497-13.175 5.126-26.477 8.343-40.515 8.831-4.978 0.173-6.264 4.534-7.328 7.727-1.23 3.689 2.385 5.829 5.613 5.778 7.013-0.11 14.219-0.097 20.968-1.711 10.224-2.447 20.161-6.138 30.134-9.55 1.631-0.559 2.824-2.4 4.301-3.722 9.777-3.036 19.938-6.193 30.361-9.43-2.314 4.687-4.443 10.372-7.708 15.302-5.239 7.906-10.807 15.68-17.021 22.827-6.34 7.289-13.338 14.082-20.578 20.491-8.022 7.1-16.441 13.802-25.106 20.101-3.75 2.725-8.709 3.719-12.845 5.997-15.734 8.667-32.116 15.215-50.051 17.882-19.223 2.858-38.593 4.012-57.422-0.461-17.686-4.201-35.438-8.692-51.967-17.226-5.279-2.725-11.007-4.863-15.167-8.953-5.389-5.299-9.669-11.71-14.617-17.479-5.741-6.693-11.826-13.093-17.489-19.849-2.831-3.377-6.182-6.849-2.214-11.977 0.898-1.16 0.223-4.759-0.983-6.137-12.855-14.687-19.465-32.528-25.668-50.511-4.107-11.908-7.44-24.084-11.103-36.086-2.878 0.784-5.463 1.487-8.625 2.349-0.506-1.573-1.218-3.783-1.932-6.003 5.978-1.771 8.746-5.913 7.595-11.462-2.956-14.241-6.282-28.408-9.075-42.68-1.848-9.432-3.047-18.991-4.483-28.501-0.126-0.831-0.18-2.184 0.286-2.514 3.948-2.796 5.863-8.337 11.579-8.72 2.475-0.165 4.958-0.287 7.438-0.291 14.712-0.024 29.426 0.171 44.135-0.039 40.762-0.579 81.52-1.561 122.28-1.841 11.095-0.075 22.715 0.06 33.169 3.189 12.114 3.627 23.989 2.255 35.982 2.855 2.986 0.149 5.985 0.022 9.785 0.022-2.635 5.893-5.078 11.113-7.314 16.418-3.127 7.421-5.829 15.032-9.2 22.337-5.538 12-11.553 23.779-17.182 35.738-1.795 3.812-3.082 7.872-4.472 11.864-1.651 4.738 1.445 6.831 5.161 7.184 5.616 0.533 11.331 0.319 16.978-9e-3 1.148-0.067 2.484-1.878 3.21-3.178 1.429-2.562 2.296-5.441 3.741-7.992 9.319-16.455 18.752-32.846 28.103-49.283 2.976-5.232 6.138-10.394 8.62-15.858 2.222-4.892 3.626-10.155 5.671-16.065 7.34-0.959 15.865-2.494 24.457-3.09 10.778-0.749 21.61-0.987 32.416-0.991 37.077-0.011 73.859-3.086 110.52-8.732 10.867-1.674 22.206-0.181 33.326-0.344 8.072-0.118 16.14-0.758 24.209-0.728 1.687 6e-3 4.875 2.048 4.806 2.951-0.49 6.282 4.031 7.765 8.317 9.132 7.044 2.248 14.21 4.142 21.4 5.871 1.19 0.286 2.908-0.825 4.12-1.667 1.094-0.76 1.832-2.036 3.666-2.479-0.237 1.855-0.472 3.709-0.824 6.472 6.552 1.22 13.018 2.757 19.574 3.584 21.19 2.672 42.387 5.342 63.635 7.486 10.854 1.096 21.838 1.675 32.666-0.846 0.501-0.117 1.258-0.41 1.496-0.189 6.839 6.316 15.342 4.089 23.233 4.32 13.606 0.397 27.23 0.395 40.845 0.247 17.166-0.186 34.403 0.177 51.467-1.318 14.323-1.255 28.472-4.678 42.635-7.463 6.001-1.179 11.828-3.226 17.756-4.794 4.597-1.216 8.689-2.989 10.761-7.753 0.366-0.841 1.35-1.677 2.233-1.987 6.818-2.393 13.621-4.853 20.544-6.909 8.314-2.468 17.202-3.528 25.016-7.039 13.467-6.051 26.516-13.142 39.307-20.547 7.431-4.301 7.068-9.904 0.318-15.465-0.923-0.76-1.521-2.276-1.697-3.523-1.347-9.541-0.613-19.263-4.411-28.624-1.951-4.806-1.305-10.712-1.562-16.134-0.077-1.628 0.287-3.683 1.261-4.882 4.195-5.167 2.986-10.188 1.607-16.21-4.679-20.454-18.081-36.536-26.463-55.109-9.239-20.474-19.732-40.385-29.753-60.504-2.91-5.841-6.206-11.146-11.67-15.432-3.878-3.042-5.821-8.581-8.551-13.053-5.67-9.291-11.292-18.615-17.83-27.631-2.122 5.964-4.381 11.735-1.64 17.429 6.973 14.495 14.292 28.826 21.643 43.135 1.166 2.268 3.241 4.062 4.851 6.109 0.932 1.185 2.006 2.334 2.616 3.68 2.636 5.825 4.835 11.864 7.73 17.552 5.509 10.83 12.077 21.17 16.95 32.265 7.427 16.91 12.63 34.65 16.75 52.678 2.405 10.522 4.096 21.295 7.537 31.471 3.82 11.298 2.351 22.859 3.776 34.236 0.427 3.409-0.997 5.57-4.534 6.661-11.501 3.55-22.934 7.321-34.375 11.062-1.674 0.547-3.204 1.537-4.881 2.069-4.729 1.504-7.346 3.717-4.588 9.189 0.504 1.001-1.098 4.286-2.374 4.754-5.979 2.188-12.115 4.064-18.325 5.475-7.597 1.726-15.277 3.273-23.006 4.199-19.671 2.356-39.379 4.426-59.094 6.39-6.652 0.662-12.657 1.52-14.636 9.48-0.309 1.238-3.101 2.594-4.78 2.64-10.762 0.29-21.542 0.48-32.304 0.229-18.039-0.419-36.082-1.893-54.103-1.621-18.103 0.273-35.745-3.126-53.598-4.748-10.914-0.992-21.746-3.617-32.648-3.843-17.321-0.36-33.223-6.44-49.623-10.513-4.339-1.078-8.287-3.729-13.507-6.167 34.064-7.24 67.641-11.023 100.95-22.676" fill-rule="evenodd"/>
   </g>
   <g transform="translate(1354.4 1307.9)">
    <path d="m0 0c-0.756-1.522-1.481-2.98-2.206-4.437 0.229-0.2 0.458-0.398 0.688-0.598 0.692 0.527 1.429 1.005 2.071 1.588 2.955 2.69 5.792 3.829 10.326 3.075 12.81-2.129 25.828-2.964 38.709-4.715 13.029-1.771 25.961-4.249 38.99-5.999 11.137-1.497 22.341-2.549 33.54-3.503 4.991-0.425 8.845-5.534 7.543-10.835-0.123-0.503-0.698-0.98-0.653-1.428 0.543-5.467 1.232-10.322-6.928-11.063-5.244-0.477-9.635-1.378-14.943 1.264-4.155 2.066-9.933 0.732-14.953 1.247-2.377 0.244-4.672 1.277-7.261 1.5-4.629 1.554-9.259 3.108-14.489 4.863 0.729 0.895 1.268 1.555 2.25 2.756-1.625 0-3.764 0.383-3.95-0.057-3.128-7.405-10.057-3.939-14.133-3.51-22.848 2.406-45.538 6.263-68.332 9.239-9.609 1.255-19.343 1.532-29.014 2.315-6.035 0.489-12.062 1.093-18.848 1.714 0.479-2.747 0.722-4.077 0.941-5.411 1.591-9.734 4.093-19.424 4.561-29.213 0.753-15.746 0.635-31.578-0.073-47.331-0.326-7.268-3.013-14.415-4.436-21.655-0.744-3.789-1.398-7.666-1.342-11.493 0.013-0.906 2.993-2.401 4.703-2.55 12.17-1.064 24.43-1.326 36.536-2.851 16.141-2.034 32.138-5.188 48.256-7.436 6.642-0.926 13.435-0.804 20.164-1.062 10.034-0.388 10.652-0.844 13.683-11.751-2.707-0.468-5.334-1.308-7.964-1.32-45.923-0.212-91.85-0.092-137.77-0.53-34.376-0.329-68.745-1.373-103.12-2.03-5.138-0.098-10.285 0.081-15.421 0.296-6.074 0.254-8.685 3.379-9.159 9.325-0.768 9.617 4.792 14.491 13.628 15.263 35.444 3.098 70.881 6.722 106.56 4.476 1.627-0.103 3.347 1.272 5.024 1.958-1.204 1.914-1.956 4.722-3.686 5.592-9.285 4.679-15.556 15.402-15.176 25.834 0.38 10.45-0.242 20.945 0.34 31.377 0.837 15.012 2.318 29.989 3.648 44.971 0.199 2.234 1.072 4.409 1.779 7.187-2.69 0.832-5.276 1.969-7.977 2.411-16.071 2.631-32.182 5.022-48.254 7.66-7.479 1.227-15.034 2.358-22.289 4.453-3.779 1.092-6.955 4.227-10.455 6.356-2.182 1.328-4.321 3.021-6.717 3.651-9.364 2.46-9.633 10.446-11.268 17.684-0.11 0.485-0.514 0.904-1.029 1.771-1.01-1.162-1.9-2.185-2.916-3.353-1.307 3.159 0.921 8.208 3.444 8.745 6.444 1.372 12.133-0.57 17.957-3.225 9.23-4.21 18.543-8.472 28.217-11.405 7.276-2.207 15.184-2.305 22.795-3.453 10.013-1.511 20.357-2.045 29.893-5.087 6.365-2.03 12.536-0.614 18.754-2.117 6.516-1.573 13.544-1.038 20.35-1.393 6.886-0.36 13.79-0.486 20.657-1.064 11.037-0.929 22.307-1.088 32.96-3.696 5.195-1.272 10.947 0.453 15.79-3" fill-rule="evenodd"/>
   </g>
   <g transform="translate(896.98 806.35)">
    <path d="m0 0c-3.215-2.089-6.289-4.449-9.68-6.196-3.773-1.945-7.868-3.256-11.764-4.977-7.34-3.244-14.775-6.314-21.901-9.981-4.411-2.271-8.251-5.626-12.474-8.292-11.64-7.348-23.244-14.762-35.071-21.8-5.87-3.493-12.177-6.259-18.337-9.249-0.899-0.437-2.276-0.715-3.104-0.34-5.822 2.635-9.53-1.184-13.578-4.153-1.711-1.256-3.45-2.562-5.363-3.438-5.212-2.387-6.955-1.53-8.468 2.656-2.816 0.872-5.138 0.998-6.612 2.18-2.35 1.888-5.351 3.818-3.992 7.846 2.202 6.531 6.203 11.33 12.028 15.229 20.56 13.763 40.894 27.865 61.214 41.98 3.174 2.204 5.684 5.344 8.763 7.707 4.608 3.537 9.241 7.128 14.245 10.04 6.398 3.725 13.096 6.971 19.821 10.087 3.798 1.759 7.94 4.075 11.873 3.977 8.696-0.215 15.576 4.029 23.084 7.051 6.208 2.498 12.69 5.085 19.238 5.731 5.781 0.57 11.584-1.746 15.543-7.088 1.088-1.469 3.476-2.185 5.411-2.771 3.329-1.007 6.868-1.356 10.145-2.485 8.926-3.077 17.964-5.958 26.583-9.765 11.87-5.241 23.401-11.248 35.065-16.951 8.321-4.07 16.727-7.981 24.903-12.325 10.232-5.437 20.096-11.581 30.439-16.784 8.7-4.378 17.176-8.668 23.654-16.345 5.057-5.994 7.611-18.348 4.33-25.418-2.87-6.185-12.267-7.842-19.033-3.774-11.411 6.862-22.989 13.446-34.529 20.092-1.516 0.873-3.2 1.974-4.838 2.032-11.425 0.402-19.74 8.047-29.493 12.321-8.739 3.83-17.439 7.837-26.431 10.977-18.698 6.531-37.576 12.545-56.386 18.756-3.365 1.112-6.692 2.505-10.152 3.12-3.537 0.628-7.22 0.411-10.833 0.666-1.601 0.114-3.184 0.483-4.776 0.735 0.159-0.35 0.317-0.7 0.476-1.051" fill-rule="evenodd"/>
   </g>
   <g transform="translate(702.66 1279.9)">
    <path d="m0 0c-1.076-16.86-2.275-32.545-3.016-48.251-0.601-12.737-0.609-25.5-0.96-38.25-0.207-7.522-1.71-14.536-5.848-21.19-4.206-6.763-14.721-8.77-21.428-4.101-11.167 7.772-14.924 19.648-15.643 32.313-0.974 17.156-0.927 34.371-1.243 51.562-0.117 6.342-0.019 12.688-0.019 19.342-17.709-2.859-34.389-5.907-51.176-8.162-16.505-2.217-32.702-7.572-50.192-6.471-1.939-6.416-8.79-3.563-13.793-4.596-2.859-0.59-6.099 0.704-9.175 1.09-0.617 0.078-1.534 0.135-1.863-0.218-5.21-5.572-12.509-4.167-18.886-5.379-6.703-1.274-13.67-1.191-20.529-1.594-1.931-0.114-3.937-0.097-5.82 0.288-6.426 1.314-7.396 3.021-4.848 9.11 2.134 5.099-1.973 4.373-4.506 5.375-3.674 1.454-7.638 2.598-10.761 4.861-1.977 1.433-3.019 4.562-3.733 7.136-0.3 1.08 1.379 3.903 2.08 3.876 5.617-0.216 5.839 4.321 6.642 7.669 1.376 5.744 6.355 5.178 10.015 5.841 6.917 1.253 14.029 1.692 21.073 1.851 2.82 0.063 5.686-1.48 8.515-2.346 2.458-0.752 4.852-1.747 7.344-2.345 16.604-3.983 33.441-2.825 50.251-2.151 16.237 0.652 32.47 1.463 48.712 1.899 5.981 0.161 11.983-0.74 17.98-0.817 10.145-0.131 19.979 1.484 29.61 4.965 6.937 2.507 14.285 3.853 21.363 6.005 6.988 2.123 13.77 4.961 20.811 6.856 12.912 3.476 25.824 7.308 38.991 9.316 5.731 0.874 10.809 2.363 15.925 4.629 7.853 3.478 15.52 7.655 23.704 10.029 7.842 2.275 9.425 2.174 11.615-4.765-1.196-0.234-2.339-0.459-3.484-0.683-0.022-0.273-0.044-0.546-0.066-0.818 2.632-0.51 5.265-1.02 7.897-1.53l-0.369-1.881h-4.97c0.696-2.731 1.378-5.403 1.761-6.905-2.023-2.089-3.211-3.889-4.876-4.912-3.227-1.982-6.627-3.756-10.122-5.217-23.542-9.842-48.009-16.401-73.193-20.378-1.702-0.269-3.343-0.93-3.77-1.053" fill-rule="evenodd"/>
   </g>
   <g transform="translate(767.99 1107.8)">
    <path d="m0 0c1.074-4.489 3.309-9.311 3.106-14.029-0.311-7.224-4.676-10.728-11.939-10.749-35.82-0.103-71.64-0.036-107.46-0.02-18.088 8e-3 -36.187-0.355-54.26 0.16-19.237 0.548-38.587 0.9-57.615 3.403-9.211 1.212-18.453 2.182-27.666 3.381-3.335 0.433-6.551 2.894-9.447 4.956-0.986 0.701-1.136 3.02-1.108 4.589 0.035 1.89 1.157 3.828 0.936 5.64-0.427 3.512 1.362 3.633 4.026 5.367 12.949 8.425 27.246 1.718 40.463 4.937 0.769 0.187 1.486 0.666 2.172 1.099 1.186 0.749 2.272 2.147 3.498 2.265 9.229 0.89 18.479 2.113 27.727 2.154 41.319 0.182 82.641 0.234 123.96-0.132 22.66-0.201 45.32-1.13 67.96-2.197 4.57-0.216 9.06-2.47 13.538-3.934 0.639-0.209 1.543-1.5 1.379-1.888-0.366-0.856-1.243-1.928-2.068-2.084-5.924-1.124-11.887-2.041-17.202-2.918" fill-rule="evenodd"/>
   </g>
   <g transform="translate(1429 1115.6)">
    <path d="m0 0h3.999c0.226-0.47 0.45-0.94 0.675-1.41-1.292-0.552-2.812-0.847-3.809-1.731-0.932-0.827-1.893-2.307-1.841-3.454 0.349-7.643-1.665-10.2-9.176-9.962-6.537 0.207-13.044 1.242-19.58 1.591-12.88 0.689-25.768 1.552-38.659 1.642-41.63 0.29-83.275-0.282-124.89 0.545-27.602 0.549-55.168 2.916-82.75 4.486-17.56 0.999-18.864 14.62-12.572 25.318 1.472 2.505 6.178 4.34 9.422 4.379 28.175 0.335 56.362 0.582 84.532 0.089 35.404-0.621 70.869-0.903 106.17-3.338 27.434-1.892 54.655-6.872 81.976-10.443 4.326-0.565 6.025-3.16 6.507-7.712" fill-rule="evenodd"/>
   </g>
   <g transform="translate(786.45 1151.8)">
    <path d="m0 0c-2.05-2.851-3.539-4.92-5.218-7.253 1.438-0.189 2.551-0.336 3.615-0.476 0.404-4.034 0.782-7.811 1.208-12.065-7.246 0-14.451-0.107-21.651 0.028-7.437 0.141-14.87 0.744-22.305 0.754-69.305 0.093-138.61 0.095-207.92 0.14-8.792 6e-3 -13.21 2.733-13.154 9.184 0.064 7.444 2.317 12.543 11.418 14.041 7.31 1.203 14.759 2.293 22.137 2.231 67.862-0.575 135.72-1.353 203.58-2.254 7.727-0.102 15.449-1.235 23.148-2.105 1.609-0.183 3.111-1.317 5.138-2.225" fill-rule="evenodd"/>
   </g>
   <g transform="translate(405.47 1617.2)">
    <path d="m0 0c-2.071-0.826-3.007-1.588-3.608-1.38-7.392 2.551-14.705 5.332-22.102 7.867-4.089 1.401-8.241 2.747-12.472 3.566-3.321 0.643-6.865 0.094-10.211 0.666-31.905 5.448-62.156 16.119-91.785 28.891-8.486 3.659-17.275 7.214-26.285 8.935-20.188 3.856-40.219 9.284-61.117 8.321-7.773-0.358-7.8-0.282-7.205-7.26 0.056-0.668-0.208-1.363-0.395-2.472-7.079-0.879-14.142-1.757-21.36-2.653-1.963 7.41-5.128 13.988-1.807 21.758 2.769 6.477 9.359 8.86 15.893 6.04 4.269-1.842 9.659-1.003 14.522-1.578 9.369-1.109 18.714-2.425 28.082-3.543 5.048-0.603 10.363-0.175 15.144-1.599 16.207-4.829 32.366-9.891 48.292-15.568 33.253-11.852 66.341-24.168 99.508-36.262 9.939-3.625 19.921-7.128 29.868-10.733 1.948-0.705 3.822-1.618 7.038-2.996" fill-rule="evenodd"/>
   </g>
   <g transform="translate(377.63 1526.4)">
    <path d="m0 0c-5.988-2.392-12.126-4.469-17.93-7.244-9.835-4.703-19.645-9.521-29.112-14.911-7.168-4.08-13.698-9.266-20.712-13.642-1.737-1.083-4.246-0.93-6.399-1.346-0.128 2.545-1.396 6.129-0.186 7.454 5.232 5.731 11.16 10.833 16.914 16.078 0.722 0.658 2.259 1.417 2.825 1.094 4.796-2.746 5.926 1.864 8.374 3.91 7.37 6.16 14.683 12.397 22.244 18.314 3.461 2.709 7.425 4.785 11.217 7.054 1.511 0.903 3.18 2.18 4.765 2.163 2.229-0.023 4.446-1.092 6.668-1.714-1.103-1.792-1.795-4.191-3.384-5.267-6.027-4.079-12.344-7.731-17.954-12.565 6.463 2.694 12.939 5.361 19.386 8.092 4.947 2.095 8.602 1.385 10.101-4.743-0.808-0.728-1.779-1.603-2.751-2.477 0.312-0.452 0.624-0.903 0.937-1.354 3.153 2.095 6.19 4.397 9.489 6.23 3.741 2.081 7.632 3.978 11.652 5.406 0.937 0.333 3.31-1.248 3.893-2.482 1.31-2.77-2.622-10.512-5.632-11.393-31.516-9.222-58.663-26.702-85.297-45.123-2.272-1.571-3.75-4.252-5.924-6.014-1.277-1.035-3.2-1.272-4.831-1.868-0.253 1.936-1.445 4.632-0.598 5.68 4.057 5.013 8.021 10.507 13.211 14.115 11.002 7.649 22.663 14.369 34.211 21.206 8.309 4.92 16.872 9.413 25.322 14.097-0.166 0.417-0.332 0.833-0.499 1.25" fill-rule="evenodd"/>
   </g>
   <g transform="translate(1119.7 1717.5)">
    <path d="m0 0c2.276 2.877 3.799 5.573 6.046 7.356 1.373 1.09 3.864 0.97 5.844 0.935 0.418-8e-3 1.426-2.331 1.07-3.034-0.761-1.503-2.066-2.878-3.452-3.891-3.668-2.68-7.41-5.282-11.28-7.657-7.965-4.888-16.513-4.877-25.603-2.545 1.806-4.081 0.931-6.534-3.127-9.089-10.988-6.921-21.729-14.304-32.033-22.201-3.641-2.789-8.66-4.974-8.95-11.391-0.129-2.852-3.717-5.514-5.626-8.335-0.85-1.254-1.488-2.663-2.124-4.047-0.86-1.866-1.624-3.775-2.544-5.931-2.693 1.234-3.923 6.424-7.17 1.955-4.247 3.189-2.893 6.716-0.733 9.915 4.405 6.524 8.724 13.166 13.781 19.169 3.293 3.908 7.822 6.772 11.796 10.108 0.524 0.44 1.195 0.808 1.517 1.369 7.337 12.822 20.752 17.147 32.841 23.118 6.267 3.094 13.173 4.902 19.81 7.234 5.437 1.909 8.499 1.092 9.937-3.038" fill-rule="evenodd"/>
   </g>
   <g transform="translate(292.5 1491.4)">
    <path d="m0 0c-0.775 1.988-0.929 2.812-1.366 3.436-4.606 6.578-4.625 8.883-0.012 15.438 8.019 11.397 19.576 17.36 32.372 21.814 3.987 1.387 7.109 5.081 10.954 7.096 6.38 3.344 12.958 6.347 19.616 9.097 1.298 0.536 3.344-0.739 5.045-1.179-0.99-1.823-1.516-4.496-3.045-5.33-9.298-5.07-18.988-9.428-28.229-14.594-9.058-5.064-18.135-10.278-26.388-16.508-3.432-2.591-4.879-7.92-6.967-12.134-0.895-1.804-1.124-3.938-1.98-7.136" fill-rule="evenodd"/>
   </g>
   <g transform="translate(933.14 400.95)">
    <path d="m0 0c8.729 1.728 7.228-6.326 9.3-9.801 2.18-3.653 1.107-9.245 1.423-13.561-2.022-1.122-3.657-1.505-4.383-2.532-2.032-2.874-3.698-4.049-7.636-2.39-3.14 1.322-4.665 2.662-5.863 5.797-2.029 5.304-5.327 10.128-7.313 15.444-1.777 4.76 2.644 8.861 8.018 8.375 1.028-0.092 2.398 1.064 3.224 1.987 0.86 0.966 1.253 2.348 1.85 3.547 0.46-1.44 0.98-2.866 1.352-4.329 0.164-0.643 0.028-1.364 0.028-2.537" fill-rule="evenodd"/>
   </g>
   <g transform="translate(1657.4 1426.7)">
    <path d="m0 0c-0.878-1.202-1.543-3.052-2.505-3.221-1.692-0.298-4.262-0.215-5.245 0.843-4.565 4.911-9.161 9.907-12.917 15.436-7.937 11.684-18.521 20.572-29.275 29.371-1.004 0.821-1.651 2.081-2.462 3.138 1.105 0.52 2.219 1.021 3.312 1.566 5.144 2.565 8.451-0.958 11.615-3.857 10.414-9.544 20.048-19.79 27.873-31.66 1.919-2.913 4.767-5.206 7.094-7.866 0.906-1.035 1.552-2.297 2.51-3.75" fill-rule="evenodd"/>
   </g>
   <g transform="translate(271.24 1519)">
    <path d="m0 0c3.38 3.64 6.403 8.125 10.519 11.1 12.756 9.219 25.89 17.92 38.996 26.643 1.279 0.851 3.381 0.465 5.102 0.653-0.386-2.273 0.045-5.474-1.301-6.659-5.393-4.755-11.007-9.436-17.155-13.118-9.553-5.72-19.179-11.181-26.804-19.511-1.052-1.15-2.431-2.072-3.808-2.83-0.999-0.549-2.676-1.253-3.278-0.818-0.936 0.677-1.214 2.262-2.271 4.54" fill-rule="evenodd"/>
   </g>
   <g transform="translate(1603.2 1449.3)">
    <path d="m0 0c3.387-1.168 7.79-1.373 9.978-3.68 7.765-8.189 15.093-16.853 21.944-25.828 3.658-4.792 6.219-10.487 8.795-15.998 0.77-1.65-0.082-4.058-0.191-6.119-2.01 1.006-4.044 1.971-6.012 3.051-0.406 0.222-0.63 0.848-0.847 1.329-6.192 13.755-16.745 24.175-26.544 35.23-3.043 3.433-4.711 8.084-7.008 12.178z" fill-rule="evenodd"/>
   </g>
   <g transform="translate(1626.6 1485.8)">
    <path d="m0 0c3.459-1.857 7.217-2.862 9.481-5.269 8.791-9.346 17.121-19.129 25.586-28.779 0.925-1.055 2.278-2.301 2.284-3.465 0.01-1.853-0.459-4.223-1.674-5.378-0.734-0.696-3.926-0.111-4.869 0.933-6.267 6.927-12.056 14.288-18.341 21.198-4.315 4.745-9.26 8.912-13.743 13.513-1.184 1.214-2.124 3.031-2.313 4.67-0.076 0.665 2.155 1.595 3.589 2.577" fill-rule="evenodd"/>
   </g>
   <g transform="translate(1603.3 1449.4)">
    <path d="m0 0c-1.641-0.252-3.792-1.304-4.84-0.633-10.357 6.637-20.556 13.524-30.731 20.442-1.424 0.967-3.074 2.3-3.538 3.798-0.549 1.777 0.072 3.916 0.186 5.898 1.571-0.215 3.468 0.061 4.664-0.725 9.709-6.38 19.263-12.996 28.919-19.459 3.438-2.301 5.906-4.996 5.221-9.491 4e-3 7e-3 0.119 0.17 0.119 0.17" fill-rule="evenodd"/>
   </g>
   <g transform="translate(1665.8 1471.7)">
    <path d="m0 0c-3.964 3.193-6.953 5.447-9.759 7.909-2.367 2.078-4.678 4.268-6.7 6.672-0.923 1.097-1.092 2.829-1.603 4.273 1.849 0.583 4.674 2.233 5.396 1.576 5.614-5.112 13.705-8.712 12.666-20.43" fill-rule="evenodd"/>
   </g>
   <g transform="translate(1407 1137.5)">
    <path d="m0 0c-17.386 0.699-34.771 1.398-52.137 2.098h52.246c-0.037-0.7-0.073-1.399-0.109-2.098" fill-rule="evenodd"/>
   </g>
   <g transform="translate(205.87 889.13)">
    <path d="m0 0c8.328 4.9 1.396 11.687 4.269 16.839 5.285-1.478 4.339-6.388 4.329-9.512-0.01-3.041-2.681-6.098-4.386-9.033-0.082-0.142-2.097 0.838-4.212 1.706" fill-rule="evenodd"/>
   </g>
   <g transform="translate(1698.9 1360)">
    <path d="m0 0c-0.89 2.959-1.726 5.744-2.593 8.628 4.919 1.682 6.959 0.17 7.63-4.664 0.585-4.218-1.403-4.401-5.037-3.964" fill-rule="evenodd"/>
   </g>
   <g transform="translate(188.52 885.52)">
    <path d="m0 0c5.047 0.799 10.095 1.599 15.143 2.397 0.068-0.657 0.136-1.315 0.205-1.973-5.052-0.313-10.102-0.626-15.153-0.94z" fill-rule="evenodd"/>
   </g>
  </g>
 </g>
</svg>
